<?xml version="1.0" encoding="UTF-8"?>
<svg id="kettlebell" xmlns="http://www.w3.org/2000/svg" viewBox="0 0 200 200">
  <defs>
    <style>
      .cls-1 {
        fill: gray;
      }
    </style>
  </defs>
  <g>
    <rect x="98.64" y="142.27" width="13.64" height="2.73"/>
    <rect x="95.91" y="136.82" width="2.73" height="5.45"/>
    <rect x="117.73" y="125.91" width="2.73" height="10.91"/>
    <rect x="93.18" y="125.91" width="2.73" height="10.91"/>
    <rect x="95.91" y="123.18" width="2.73" height="2.73"/>
    <rect x="115" y="112.27" width="2.73" height="13.64"/>
    <rect x="93.18" y="115" width="2.73" height="8.18"/>
    <polygon points="109.55 106.82 106.82 106.82 106.82 115 109.55 115 109.55 117.73 106.82 117.73 106.82 115 98.64 115 98.64 123.18 104.09 123.18 104.09 120.45 101.36 120.45 101.36 117.73 104.09 117.73 104.09 120.45 112.27 120.45 112.27 112.27 109.55 112.27 109.55 106.82"/>
    <rect x="95.91" y="109.55" width="2.73" height="5.45"/>
    <rect x="87.73" y="30.45" width="2.73" height="16.36"/>
    <polygon points="95.91 49.55 93.18 49.55 93.18 46.82 90.45 46.82 90.45 52.27 95.91 52.27 95.91 49.55"/>
    <polygon points="95.91 55 106.82 55 106.82 63.18 109.55 63.18 109.55 55 112.27 55 112.27 52.27 95.91 52.27 95.91 55"/>
    <rect x="112.27" y="49.55" width="2.73" height="2.73"/>
    <rect x="115" y="30.45" width="2.73" height="19.09"/>
    <rect x="112.27" y="27.73" width="2.73" height="2.73"/>
    <rect x="93.18" y="25" width="19.09" height="2.73"/>
    <rect x="90.45" y="27.73" width="2.73" height="2.73"/>
    <rect x="87.73" y="52.27" width="2.73" height="2.73"/>
    <rect x="76.82" y="63.18" width="2.73" height="10.91"/>
    <rect x="79.55" y="74.09" width="2.73" height="5.45"/>
    <rect x="115" y="57.73" width="2.73" height="2.73"/>
    <rect x="117.73" y="60.45" width="2.73" height="30"/>
    <rect x="115" y="90.45" width="2.73" height="13.64"/>
    <rect x="112.27" y="63.18" width="2.73" height="8.18"/>
    <rect x="112.27" y="55" width="2.73" height="2.73"/>
    <polygon points="112.27 112.27 115 112.27 115 109.55 120.45 109.55 120.45 106.82 115 106.82 115 104.09 112.27 104.09 112.27 112.27"/>
    <rect x="109.55" y="71.36" width="2.73" height="10.91"/>
    <polygon points="106.82 95.91 106.82 104.09 109.55 104.09 109.55 82.27 106.82 82.27 106.82 85 104.09 85 104.09 90.45 106.82 90.45 106.82 93.18 104.09 93.18 104.09 90.45 101.36 90.45 101.36 93.18 98.64 93.18 98.64 98.64 101.36 98.64 101.36 95.91 106.82 95.91"/>
    <rect x="104.09" y="104.09" width="2.73" height="2.73"/>
    <rect x="101.36" y="98.64" width="2.73" height="5.45"/>
    <rect x="95.91" y="85" width="2.73" height="8.18"/>
    <rect x="93.18" y="71.36" width="2.73" height="13.64"/>
    <rect x="90.45" y="65.91" width="2.73" height="5.45"/>
    <rect x="82.27" y="55" width="5.45" height="2.73"/>
    <rect x="82.27" y="79.55" width="2.73" height="8.18"/>
    <rect x="79.55" y="57.73" width="2.73" height="5.45"/>
    <rect x="74.09" y="74.09" width="2.73" height="5.45"/>
    <rect x="85" y="87.73" width="2.73" height="5.45"/>
    <rect x="87.73" y="93.18" width="2.73" height="5.45"/>
    <rect x="90.45" y="98.64" width="2.73" height="5.45"/>
    <rect x="93.18" y="104.09" width="2.73" height="5.45"/>
    <rect x="71.36" y="79.55" width="2.73" height="16.36"/>
    <rect x="74.09" y="95.91" width="2.73" height="2.73"/>
    <rect x="76.82" y="98.64" width="10.91" height="2.73"/>
    <polygon points="65.91 172.27 65.91 175 79.55 175 79.55 166.82 76.82 166.82 76.82 172.27 65.91 172.27"/>
    <rect x="63.18" y="169.55" width="2.73" height="2.73"/>
    <rect x="74.09" y="164.09" width="2.73" height="2.73"/>
    <rect x="120.45" y="155.91" width="16.36" height="2.73"/>
    <polygon points="65.91 155.91 65.91 142.27 63.18 142.27 63.18 153.18 60.45 153.18 60.45 169.55 63.18 169.55 63.18 155.91 65.91 155.91"/>
    <polygon points="117.73 139.55 117.73 136.82 115 136.82 115 139.55 112.27 139.55 112.27 142.27 117.73 142.27 117.73 155.91 120.45 155.91 120.45 139.55 117.73 139.55"/>
    <polygon points="134.09 150.45 134.09 153.18 136.82 153.18 136.82 155.91 139.55 155.91 139.55 150.45 134.09 150.45"/>
    <rect x="131.36" y="147.73" width="2.73" height="2.73"/>
    <polygon points="74.09 147.73 71.36 147.73 71.36 155.91 65.91 155.91 65.91 158.64 71.36 158.64 71.36 164.09 74.09 164.09 74.09 150.45 76.82 150.45 76.82 142.27 74.09 142.27 74.09 147.73"/>
    <rect x="76.82" y="136.82" width="2.73" height="5.45"/>
    <polygon points="82.27 131.36 79.55 131.36 79.55 136.82 82.27 136.82 82.27 134.09 85 134.09 85 120.45 82.27 120.45 82.27 131.36"/>
    <polygon points="128.64 145 128.64 147.73 131.36 147.73 131.36 142.27 128.64 142.27 128.64 125.91 125.91 125.91 125.91 145 128.64 145"/>
    <polygon points="123.18 115 123.18 125.91 125.91 125.91 125.91 112.27 123.18 112.27 123.18 109.55 120.45 109.55 120.45 115 123.18 115"/>
    <rect x="87.73" y="109.55" width="5.45" height="2.73"/>
    <rect x="85" y="112.27" width="2.73" height="8.18"/>
    <rect x="65.91" y="131.36" width="2.73" height="10.91"/>
    <polygon points="71.36 120.45 82.27 120.45 82.27 117.73 71.36 117.73 71.36 95.91 68.64 95.91 68.64 131.36 71.36 131.36 71.36 120.45"/>
    <rect x="90.45" y="55" width="2.73" height="2.73"/>
    <rect x="93.18" y="57.73" width="2.73" height="2.73"/>
    <rect x="95.91" y="60.45" width="2.73" height="2.73"/>
    <rect x="98.64" y="63.18" width="8.18" height="2.73"/>
  </g>
  <g>
    <polygon class="cls-1" points="71.36 164.09 65.91 164.09 65.91 166.82 63.18 166.82 63.18 169.55 65.91 169.55 65.91 172.27 76.82 172.27 76.82 166.82 71.36 166.82 71.36 164.09"/>
    <polygon class="cls-1" points="125.91 153.18 125.91 150.45 120.45 150.45 120.45 155.91 136.82 155.91 136.82 153.18 125.91 153.18"/>
    <polygon class="cls-1" points="76.82 134.09 74.09 134.09 74.09 136.82 71.36 136.82 71.36 142.27 68.64 142.27 68.64 147.73 65.91 147.73 65.91 155.91 71.36 155.91 71.36 147.73 74.09 147.73 74.09 142.27 76.82 142.27 76.82 136.82 79.55 136.82 79.55 131.36 76.82 131.36 76.82 134.09"/>
    <polygon class="cls-1" points="104.09 136.82 101.36 136.82 101.36 131.36 98.64 131.36 98.64 125.91 95.91 125.91 95.91 136.82 98.64 136.82 98.64 142.27 112.27 142.27 112.27 139.55 104.09 139.55 104.09 136.82"/>
    <rect class="cls-1" x="123.18" y="125.91" width="2.73" height="19.09"/>
    <rect class="cls-1" x="95.91" y="115" width="2.73" height="8.18"/>
    <rect class="cls-1" x="85" y="82.27" width="2.73" height="5.45"/>
    <rect class="cls-1" x="87.73" y="87.73" width="2.73" height="5.45"/>
    <polygon class="cls-1" points="106.82 79.55 109.55 79.55 109.55 74.09 106.82 74.09 106.82 76.82 104.09 76.82 104.09 82.27 101.36 82.27 101.36 87.73 98.64 87.73 98.64 93.18 101.36 93.18 101.36 90.45 104.09 90.45 104.09 85 106.82 85 106.82 79.55"/>
    <polygon class="cls-1" points="93.18 38.64 112.27 38.64 112.27 35.91 115 35.91 115 30.45 112.27 30.45 112.27 27.73 93.18 27.73 93.18 30.45 90.45 30.45 90.45 41.36 93.18 41.36 93.18 38.64"/>
    <polygon class="cls-1" points="98.64 60.45 98.64 63.18 106.82 63.18 106.82 55 95.91 55 95.91 52.27 93.18 52.27 93.18 57.73 95.91 57.73 95.91 60.45 98.64 60.45"/>
    <polygon class="cls-1" points="115 57.73 112.27 57.73 112.27 55 109.55 55 109.55 71.36 112.27 71.36 112.27 63.18 115 63.18 115 87.73 112.27 87.73 112.27 98.64 109.55 98.64 109.55 104.09 106.82 104.09 106.82 106.82 109.55 106.82 109.55 112.27 112.27 112.27 112.27 101.36 115 101.36 115 90.45 117.73 90.45 117.73 60.45 115 60.45 115 57.73"/>
    <polygon class="cls-1" points="106.82 95.91 101.36 95.91 101.36 98.64 104.09 98.64 104.09 101.36 106.82 101.36 106.82 95.91"/>
    <polygon class="cls-1" points="106.82 115 106.82 112.27 101.36 112.27 101.36 106.82 95.91 106.82 95.91 109.55 98.64 109.55 98.64 115 106.82 115"/>
    <rect class="cls-1" x="93.18" y="98.64" width="2.73" height="5.45"/>
    <rect class="cls-1" x="90.45" y="93.18" width="2.73" height="5.45"/>
    <polygon class="cls-1" points="85 93.18 85 87.73 82.27 87.73 82.27 90.45 79.55 90.45 79.55 95.91 76.82 95.91 76.82 98.64 87.73 98.64 87.73 93.18 85 93.18"/>
    <polygon class="cls-1" points="90.45 98.64 87.73 98.64 87.73 101.36 82.27 101.36 82.27 106.82 76.82 106.82 76.82 109.55 82.27 109.55 82.27 115 79.55 115 79.55 117.73 82.27 117.73 82.27 120.45 85 120.45 85 112.27 87.73 112.27 87.73 109.55 90.45 109.55 90.45 106.82 93.18 106.82 93.18 104.09 90.45 104.09 90.45 98.64"/>
  </g>
</svg>