<?xml version="1.0" encoding="UTF-8"?>
<svg id="hangboard" xmlns="http://www.w3.org/2000/svg" viewBox="0 0 200 200">
  <defs>
    <style>
      .cls-1 {
        fill: gray;
      }
    </style>
  </defs>
  <g>
    <rect x="46.82" y="169.55" width="5.45" height="2.73"/>
    <rect x="33.18" y="169.55" width="5.45" height="2.73"/>
    <rect x="52.27" y="166.82" width="5.45" height="2.73"/>
    <rect x="57.73" y="164.09" width="5.45" height="2.73"/>
    <rect x="63.18" y="161.36" width="5.45" height="2.73"/>
    <rect x="68.64" y="158.64" width="5.45" height="2.73"/>
    <rect x="74.09" y="155.91" width="5.45" height="2.73"/>
    <rect x="79.55" y="153.18" width="5.45" height="2.73"/>
    <rect x="85" y="150.45" width="5.45" height="2.73"/>
    <rect x="90.45" y="147.73" width="5.45" height="2.73"/>
    <rect x="95.91" y="145" width="5.45" height="2.73"/>
    <rect x="55" y="145" width="5.45" height="2.73"/>
    <rect x="101.36" y="142.27" width="5.45" height="2.73"/>
    <rect x="106.82" y="139.55" width="5.45" height="2.73"/>
    <rect x="112.27" y="136.82" width="5.45" height="2.73"/>
    <rect x="117.73" y="134.09" width="5.45" height="2.73"/>
    <rect x="123.18" y="131.36" width="5.45" height="2.73"/>
    <rect x="93.18" y="125.91" width="5.45" height="2.73"/>
    <rect x="98.64" y="123.18" width="5.45" height="2.73"/>
    <rect x="104.09" y="120.45" width="5.45" height="2.73"/>
    <rect x="109.55" y="117.73" width="5.45" height="2.73"/>
    <rect x="115" y="115" width="5.45" height="2.73"/>
    <polygon points="164.09 74.09 161.36 74.09 161.36 76.82 164.09 76.82 164.09 93.18 166.82 93.18 166.82 71.36 164.09 71.36 164.09 74.09"/>
    <rect x="155.91" y="115" width="5.45" height="2.73"/>
    <rect x="150.45" y="117.73" width="5.45" height="2.73"/>
    <rect x="145" y="120.45" width="5.45" height="2.73"/>
    <rect x="139.55" y="123.18" width="5.45" height="2.73"/>
    <rect x="134.09" y="125.91" width="5.45" height="2.73"/>
    <rect x="128.64" y="128.64" width="5.45" height="2.73"/>
    <rect x="131.36" y="106.82" width="5.45" height="2.73"/>
    <rect x="125.91" y="109.55" width="5.45" height="2.73"/>
    <rect x="120.45" y="112.27" width="5.45" height="2.73"/>
    <rect x="87.73" y="128.64" width="5.45" height="2.73"/>
    <rect x="60.45" y="142.27" width="5.45" height="2.73"/>
    <rect x="65.91" y="139.55" width="5.45" height="2.73"/>
    <rect x="71.36" y="136.82" width="5.45" height="2.73"/>
    <rect x="76.82" y="134.09" width="5.45" height="2.73"/>
    <rect x="82.27" y="131.36" width="5.45" height="2.73"/>
    <polygon points="44.09 150.45 55 150.45 55 147.73 49.55 147.73 49.55 131.36 57.73 131.36 57.73 128.64 52.27 128.64 52.27 93.18 46.82 93.18 46.82 95.91 49.55 95.91 49.55 128.64 46.82 128.64 46.82 147.73 44.09 147.73 44.09 93.18 46.82 93.18 46.82 90.45 49.55 90.45 49.55 87.73 44.09 87.73 44.09 90.45 41.36 90.45 41.36 172.27 38.64 172.27 38.64 175 46.82 175 46.82 172.27 44.09 172.27 44.09 150.45"/>
    <polygon points="35.91 87.73 35.91 85 38.64 85 38.64 82.27 33.18 82.27 33.18 85 30.45 85 30.45 169.55 33.18 169.55 33.18 87.73 35.91 87.73"/>
    <rect x="35.91" y="87.73" width="5.45" height="2.73"/>
    <rect x="85" y="112.27" width="5.45" height="2.73"/>
    <rect x="90.45" y="109.55" width="5.45" height="2.73"/>
    <rect x="95.91" y="106.82" width="5.45" height="2.73"/>
    <rect x="101.36" y="104.09" width="5.45" height="2.73"/>
    <rect x="65.91" y="65.91" width="5.45" height="2.73"/>
    <rect x="71.36" y="63.18" width="5.45" height="2.73"/>
    <rect x="76.82" y="60.45" width="5.45" height="2.73"/>
    <rect x="82.27" y="57.73" width="5.45" height="2.73"/>
    <rect x="87.73" y="55" width="5.45" height="2.73"/>
    <rect x="93.18" y="52.27" width="5.45" height="2.73"/>
    <rect x="98.64" y="49.55" width="5.45" height="2.73"/>
    <rect x="104.09" y="46.82" width="5.45" height="2.73"/>
    <rect x="109.55" y="44.09" width="5.45" height="2.73"/>
    <rect x="115" y="41.36" width="5.45" height="2.73"/>
    <rect x="120.45" y="38.64" width="5.45" height="2.73"/>
    <rect x="125.91" y="35.91" width="5.45" height="2.73"/>
    <rect x="131.36" y="33.18" width="5.45" height="2.73"/>
    <rect x="136.82" y="30.45" width="5.45" height="2.73"/>
    <rect x="142.27" y="27.73" width="5.45" height="2.73"/>
    <polygon points="145 41.36 147.73 41.36 147.73 38.64 142.27 38.64 142.27 41.36 139.55 41.36 139.55 44.09 145 44.09 145 41.36"/>
    <rect x="131.36" y="44.09" width="8.18" height="2.73"/>
    <rect x="145" y="44.09" width="5.45" height="2.73"/>
    <rect x="155.91" y="38.64" width="5.45" height="2.73"/>
    <polygon points="158.64 95.91 161.36 95.91 161.36 115 164.09 115 164.09 93.18 158.64 93.18 158.64 95.91"/>
    <rect x="155.91" y="76.82" width="5.45" height="2.73"/>
    <rect x="153.18" y="95.91" width="5.45" height="2.73"/>
    <rect x="150.45" y="79.55" width="5.45" height="2.73"/>
    <rect x="150.45" y="41.36" width="5.45" height="2.73"/>
    <rect x="147.73" y="98.64" width="5.45" height="2.73"/>
    <rect x="145" y="82.27" width="5.45" height="2.73"/>
    <rect x="142.27" y="101.36" width="5.45" height="2.73"/>
    <rect x="139.55" y="85" width="5.45" height="2.73"/>
    <polygon points="139.55 49.55 142.27 49.55 142.27 60.45 145 60.45 145 46.82 139.55 46.82 139.55 49.55"/>
    <rect x="134.09" y="87.73" width="5.45" height="2.73"/>
    <rect x="136.82" y="104.09" width="5.45" height="2.73"/>
    <rect x="128.64" y="90.45" width="5.45" height="2.73"/>
    <rect x="123.18" y="93.18" width="5.45" height="2.73"/>
    <rect x="117.73" y="95.91" width="5.45" height="2.73"/>
    <rect x="112.27" y="98.64" width="5.45" height="2.73"/>
    <rect x="106.82" y="101.36" width="5.45" height="2.73"/>
    <rect x="79.55" y="115" width="5.45" height="2.73"/>
    <rect x="74.09" y="117.73" width="5.45" height="2.73"/>
    <rect x="68.64" y="120.45" width="5.45" height="2.73"/>
    <rect x="63.18" y="123.18" width="5.45" height="2.73"/>
    <rect x="57.73" y="125.91" width="5.45" height="2.73"/>
    <rect x="52.27" y="90.45" width="5.45" height="2.73"/>
    <rect x="57.73" y="87.73" width="5.45" height="2.73"/>
    <rect x="63.18" y="85" width="5.45" height="2.73"/>
    <polygon points="68.64 82.27 68.64 85 74.09 85 74.09 93.18 76.82 93.18 76.82 82.27 74.09 82.27 74.09 79.55 71.36 79.55 71.36 82.27 68.64 82.27"/>
    <rect x="65.91" y="76.82" width="5.45" height="2.73"/>
    <rect x="60.45" y="79.55" width="5.45" height="2.73"/>
    <rect x="55" y="82.27" width="5.45" height="2.73"/>
    <rect x="49.55" y="85" width="5.45" height="2.73"/>
    <rect x="38.64" y="79.55" width="5.45" height="2.73"/>
    <rect x="44.09" y="76.82" width="5.45" height="2.73"/>
    <rect x="49.55" y="74.09" width="5.45" height="2.73"/>
    <rect x="55" y="71.36" width="5.45" height="2.73"/>
    <rect x="60.45" y="68.64" width="5.45" height="2.73"/>
    <rect x="76.82" y="71.36" width="5.45" height="2.73"/>
    <rect x="82.27" y="68.64" width="5.45" height="2.73"/>
    <rect x="87.73" y="65.91" width="5.45" height="2.73"/>
    <rect x="93.18" y="63.18" width="5.45" height="2.73"/>
    <rect x="98.64" y="60.45" width="5.45" height="2.73"/>
    <rect x="104.09" y="57.73" width="5.45" height="2.73"/>
    <rect x="109.55" y="55" width="5.45" height="2.73"/>
    <rect x="115" y="52.27" width="5.45" height="2.73"/>
    <rect x="120.45" y="49.55" width="5.45" height="2.73"/>
    <rect x="125.91" y="46.82" width="5.45" height="2.73"/>
    <rect x="147.73" y="35.91" width="5.45" height="2.73"/>
    <rect x="153.18" y="33.18" width="5.45" height="2.73"/>
    <polygon points="164.09 33.18 164.09 30.45 161.36 30.45 161.36 27.73 158.64 27.73 158.64 33.18 164.09 33.18"/>
    <rect x="147.73" y="25" width="10.91" height="2.73"/>
    <polygon points="166.82 35.91 166.82 33.18 164.09 33.18 164.09 35.91 161.36 35.91 161.36 38.64 166.82 38.64 166.82 71.36 169.55 71.36 169.55 35.91 166.82 35.91"/>
    <polygon points="161.36 71.36 164.09 71.36 164.09 63.18 155.91 63.18 155.91 65.91 161.36 65.91 161.36 71.36"/>
    <rect x="155.91" y="71.36" width="5.45" height="2.73"/>
    <rect x="150.45" y="65.91" width="5.45" height="2.73"/>
    <polygon points="150.45 74.09 150.45 68.64 147.73 68.64 147.73 76.82 155.91 76.82 155.91 74.09 150.45 74.09"/>
    <rect x="136.82" y="79.55" width="5.45" height="2.73"/>
    <polygon points="136.82 74.09 142.27 74.09 142.27 79.55 145 79.55 145 71.36 136.82 71.36 136.82 74.09"/>
    <rect x="131.36" y="82.27" width="5.45" height="2.73"/>
    <rect x="131.36" y="74.09" width="5.45" height="2.73"/>
    <rect x="125.91" y="76.82" width="5.45" height="2.73"/>
    <polygon points="125.91 79.55 123.18 79.55 123.18 87.73 131.36 87.73 131.36 85 125.91 85 125.91 79.55"/>
    <polygon points="109.55 87.73 115 87.73 115 93.18 117.73 93.18 117.73 85 109.55 85 109.55 87.73"/>
    <rect x="109.55" y="93.18" width="5.45" height="2.73"/>
    <rect x="104.09" y="87.73" width="5.45" height="2.73"/>
    <polygon points="104.09 90.45 101.36 90.45 101.36 98.64 109.55 98.64 109.55 95.91 104.09 95.91 104.09 90.45"/>
    <rect x="71.36" y="74.09" width="5.45" height="2.73"/>
    <rect x="57.73" y="109.55" width="5.45" height="2.73"/>
    <polygon points="57.73 112.27 55 112.27 55 120.45 63.18 120.45 63.18 117.73 57.73 117.73 57.73 112.27"/>
    <rect x="63.18" y="115" width="5.45" height="2.73"/>
    <polygon points="63.18 109.55 68.64 109.55 68.64 115 71.36 115 71.36 106.82 63.18 106.82 63.18 109.55"/>
    <rect x="79.55" y="101.36" width="5.45" height="2.73"/>
    <rect x="85" y="98.64" width="5.45" height="2.73"/>
    <polygon points="79.55 104.09 76.82 104.09 76.82 112.27 82.27 112.27 82.27 109.55 79.55 109.55 79.55 104.09"/>
    <rect x="82.27" y="106.82" width="5.45" height="2.73"/>
    <rect x="87.73" y="104.09" width="5.45" height="2.73"/>
    <polygon points="90.45 98.64 95.91 98.64 95.91 101.36 93.18 101.36 93.18 104.09 98.64 104.09 98.64 95.91 90.45 95.91 90.45 98.64"/>
    <polygon points="90.45 120.45 90.45 123.18 93.18 123.18 93.18 117.73 85 117.73 85 120.45 90.45 120.45"/>
    <rect x="68.64" y="153.18" width="5.45" height="2.73"/>
    <polygon points="63.18 155.91 63.18 150.45 60.45 150.45 60.45 158.64 68.64 158.64 68.64 155.91 63.18 155.91"/>
    <rect x="74.09" y="150.45" width="5.45" height="2.73"/>
    <rect x="63.18" y="147.73" width="5.45" height="2.73"/>
    <polygon points="79.55 150.45 82.27 150.45 82.27 142.27 74.09 142.27 74.09 145 79.55 145 79.55 150.45"/>
    <rect x="68.64" y="145" width="5.45" height="2.73"/>
    <rect x="63.18" y="134.09" width="5.45" height="2.73"/>
    <polygon points="68.64 131.36 68.64 134.09 71.36 134.09 71.36 128.64 63.18 128.64 63.18 131.36 68.64 131.36"/>
    <polygon points="79.55 123.18 76.82 123.18 76.82 128.64 85 128.64 85 125.91 79.55 125.91 79.55 123.18"/>
    <rect x="85" y="123.18" width="5.45" height="2.73"/>
    <polygon points="155.91 87.73 155.91 90.45 158.64 90.45 158.64 85 150.45 85 150.45 87.73 155.91 87.73"/>
    <rect x="150.45" y="90.45" width="5.45" height="2.73"/>
    <polygon points="150.45 115 153.18 115 153.18 106.82 145 106.82 145 109.55 150.45 109.55 150.45 115"/>
    <rect x="145" y="87.73" width="5.45" height="2.73"/>
    <rect x="145" y="115" width="5.45" height="2.73"/>
    <polygon points="145 90.45 142.27 90.45 142.27 95.91 150.45 95.91 150.45 93.18 145 93.18 145 90.45"/>
    <rect x="139.55" y="109.55" width="5.45" height="2.73"/>
    <rect x="139.55" y="117.73" width="5.45" height="2.73"/>
    <rect x="134.09" y="112.27" width="5.45" height="2.73"/>
    <polygon points="134.09 120.45 134.09 115 131.36 115 131.36 123.18 139.55 123.18 139.55 120.45 134.09 120.45"/>
    <polygon points="134.09 98.64 134.09 101.36 136.82 101.36 136.82 95.91 128.64 95.91 128.64 98.64 134.09 98.64"/>
    <rect x="128.64" y="101.36" width="5.45" height="2.73"/>
    <rect x="123.18" y="98.64" width="5.45" height="2.73"/>
    <polygon points="123.18 101.36 120.45 101.36 120.45 106.82 128.64 106.82 128.64 104.09 123.18 104.09 123.18 101.36"/>
    <rect x="57.73" y="131.36" width="5.45" height="2.73"/>
    <polygon points="57.73 134.09 55 134.09 55 139.55 63.18 139.55 63.18 136.82 57.73 136.82 57.73 134.09"/>
    <rect x="79.55" y="120.45" width="5.45" height="2.73"/>
  </g>
  <g>
    <polygon class="cls-1" points="35.91 87.73 33.18 87.73 33.18 169.55 38.64 169.55 38.64 172.27 41.36 172.27 41.36 90.45 35.91 90.45 35.91 87.73"/>
    <polygon class="cls-1" points="68.64 147.73 68.64 150.45 63.18 150.45 63.18 155.91 68.64 155.91 68.64 153.18 74.09 153.18 74.09 150.45 79.55 150.45 79.55 145 74.09 145 74.09 147.73 68.64 147.73"/>
    <polygon class="cls-1" points="139.55 60.45 142.27 60.45 142.27 49.55 139.55 49.55 139.55 46.82 136.82 46.82 136.82 52.27 139.55 52.27 139.55 60.45"/>
    <polygon class="cls-1" points="109.55 93.18 115 93.18 115 87.73 109.55 87.73 109.55 90.45 104.09 90.45 104.09 95.91 109.55 95.91 109.55 93.18"/>
    <polygon class="cls-1" points="139.55 112.27 139.55 115 134.09 115 134.09 120.45 139.55 120.45 139.55 117.73 145 117.73 145 115 150.45 115 150.45 109.55 145 109.55 145 112.27 139.55 112.27"/>
    <rect class="cls-1" x="79.55" y="123.18" width="5.45" height="2.73"/>
    <rect class="cls-1" x="85" y="120.45" width="5.45" height="2.73"/>
    <rect class="cls-1" x="128.64" y="98.64" width="5.45" height="2.73"/>
    <rect class="cls-1" x="150.45" y="87.73" width="5.45" height="2.73"/>
    <polygon class="cls-1" points="161.36 76.82 161.36 79.55 155.91 79.55 155.91 82.27 150.45 82.27 150.45 85 158.64 85 158.64 82.27 164.09 82.27 164.09 76.82 161.36 76.82"/>
    <polygon class="cls-1" points="155.91 71.36 161.36 71.36 161.36 65.91 155.91 65.91 155.91 68.64 150.45 68.64 150.45 74.09 155.91 74.09 155.91 71.36"/>
    <rect class="cls-1" x="145" y="90.45" width="5.45" height="2.73"/>
    <rect class="cls-1" x="145" y="85" width="5.45" height="2.73"/>
    <polygon class="cls-1" points="139.55 87.73 139.55 90.45 134.09 90.45 134.09 93.18 128.64 93.18 128.64 95.91 136.82 95.91 136.82 93.18 142.27 93.18 142.27 90.45 145 90.45 145 87.73 139.55 87.73"/>
    <polygon class="cls-1" points="131.36 82.27 136.82 82.27 136.82 79.55 142.27 79.55 142.27 74.09 136.82 74.09 136.82 76.82 131.36 76.82 131.36 79.55 125.91 79.55 125.91 85 131.36 85 131.36 82.27"/>
    <rect class="cls-1" x="123.18" y="101.36" width="5.45" height="2.73"/>
    <rect class="cls-1" x="123.18" y="95.91" width="5.45" height="2.73"/>
    <polygon class="cls-1" points="117.73 98.64 117.73 101.36 112.27 101.36 112.27 104.09 106.82 104.09 106.82 106.82 101.36 106.82 101.36 109.55 95.91 109.55 95.91 112.27 90.45 112.27 90.45 115 85 115 85 117.73 93.18 117.73 93.18 115 98.64 115 98.64 112.27 104.09 112.27 104.09 109.55 109.55 109.55 109.55 106.82 115 106.82 115 104.09 120.45 104.09 120.45 101.36 123.18 101.36 123.18 98.64 117.73 98.64"/>
    <rect class="cls-1" x="79.55" y="117.73" width="5.45" height="2.73"/>
    <polygon class="cls-1" points="158.64 98.64 153.18 98.64 153.18 101.36 147.73 101.36 147.73 104.09 142.27 104.09 142.27 106.82 136.82 106.82 136.82 109.55 131.36 109.55 131.36 112.27 125.91 112.27 125.91 115 120.45 115 120.45 117.73 115 117.73 115 120.45 109.55 120.45 109.55 123.18 104.09 123.18 104.09 125.91 98.64 125.91 98.64 128.64 93.18 128.64 93.18 131.36 87.73 131.36 87.73 134.09 82.27 134.09 82.27 136.82 76.82 136.82 76.82 139.55 71.36 139.55 71.36 142.27 65.91 142.27 65.91 145 60.45 145 60.45 147.73 55 147.73 55 150.45 44.09 150.45 44.09 155.91 52.27 155.91 52.27 153.18 57.73 153.18 57.73 150.45 63.18 150.45 63.18 147.73 68.64 147.73 68.64 145 74.09 145 74.09 142.27 79.55 142.27 79.55 139.55 85 139.55 85 136.82 90.45 136.82 90.45 134.09 95.91 134.09 95.91 131.36 101.36 131.36 101.36 128.64 106.82 128.64 106.82 125.91 112.27 125.91 112.27 123.18 117.73 123.18 117.73 120.45 123.18 120.45 123.18 117.73 128.64 117.73 128.64 115 134.09 115 134.09 112.27 139.55 112.27 139.55 109.55 145 109.55 145 106.82 150.45 106.82 150.45 104.09 155.91 104.09 155.91 101.36 161.36 101.36 161.36 95.91 158.64 95.91 158.64 98.64"/>
    <rect class="cls-1" x="57.73" y="134.09" width="5.45" height="2.73"/>
    <rect class="cls-1" x="63.18" y="131.36" width="5.45" height="2.73"/>
    <rect class="cls-1" x="49.55" y="131.36" width="8.18" height="2.73"/>
    <rect class="cls-1" x="57.73" y="128.64" width="5.45" height="2.73"/>
    <polygon class="cls-1" points="74.09 120.45 74.09 123.18 68.64 123.18 68.64 125.91 63.18 125.91 63.18 128.64 71.36 128.64 71.36 125.91 76.82 125.91 76.82 123.18 79.55 123.18 79.55 120.45 74.09 120.45"/>
    <polygon class="cls-1" points="63.18 115 68.64 115 68.64 109.55 63.18 109.55 63.18 112.27 57.73 112.27 57.73 117.73 63.18 117.73 63.18 115"/>
    <polygon class="cls-1" points="82.27 106.82 87.73 106.82 87.73 104.09 93.18 104.09 93.18 101.36 95.91 101.36 95.91 98.64 90.45 98.64 90.45 101.36 85 101.36 85 104.09 79.55 104.09 79.55 109.55 82.27 109.55 82.27 106.82"/>
    <polygon class="cls-1" points="46.82 128.64 49.55 128.64 49.55 95.91 46.82 95.91 46.82 93.18 44.09 93.18 44.09 147.73 46.82 147.73 46.82 128.64"/>
  </g>
</svg>