<?xml version="1.0" encoding="UTF-8"?>
<svg id="pullups" xmlns="http://www.w3.org/2000/svg" viewBox="0 0 200 200">
  <defs>
    <style>
      .cls-1 {
        fill: gray;
      }
    </style>
  </defs>
  <g id="grey">
    <polygon class="cls-1" points="113.64 150.45 113.64 158.64 110.91 158.64 110.91 161.36 105.45 161.36 105.45 150.45 113.64 150.45"/>
    <rect class="cls-1" x="110.91" y="145" width="2.73" height="2.73"/>
    <polygon class="cls-1" points="105.45 147.73 105.45 150.45 102.73 150.45 102.73 153.18 100 153.18 100 155.91 97.27 155.91 97.27 158.64 94.55 158.64 94.55 150.45 97.27 150.45 97.27 145 102.73 145 102.73 147.73 105.45 147.73"/>
    <rect class="cls-1" x="108.18" y="139.55" width="2.73" height="5.45"/>
    <rect class="cls-1" x="97.27" y="139.55" width="2.73" height="2.73"/>
    <rect class="cls-1" x="94.55" y="136.82" width="2.73" height="2.73"/>
    <rect class="cls-1" x="105.45" y="134.09" width="2.73" height="5.45"/>
    <rect class="cls-1" x="91.82" y="131.36" width="2.73" height="5.45"/>
    <rect class="cls-1" x="102.73" y="125.91" width="2.73" height="8.18"/>
    <rect class="cls-1" x="56.36" y="33.18" width="2.73" height="111.82"/>
    <rect class="cls-1" x="61.82" y="38.64" width="5.45" height="2.73"/>
    <rect class="cls-1" x="78.18" y="44.09" width="2.73" height="2.73"/>
    <rect class="cls-1" x="80.91" y="46.82" width="5.45" height="2.73"/>
    <rect class="cls-1" x="86.36" y="49.55" width="5.45" height="2.73"/>
    <rect class="cls-1" x="94.55" y="52.27" width="5.45" height="2.73"/>
    <rect class="cls-1" x="100" y="55" width="5.45" height="2.73"/>
    <rect class="cls-1" x="110.91" y="60.45" width="2.73" height="2.73"/>
    <rect class="cls-1" x="105.45" y="57.73" width="5.45" height="2.73"/>
    <polygon class="cls-1" points="132.73 65.91 132.73 68.64 124.55 68.64 124.55 63.18 127.27 63.18 127.27 65.91 132.73 65.91"/>
    <rect class="cls-1" x="72.73" y="49.55" width="2.73" height="10.91"/>
    <polygon class="cls-1" points="110.91 41.36 110.91 46.82 102.73 46.82 102.73 44.09 91.82 44.09 91.82 38.64 108.18 38.64 108.18 41.36 110.91 41.36"/>
    <rect class="cls-1" x="143.64" y="65.91" width="2.73" height="106.36"/>
    <rect class="cls-1" x="132.73" y="68.64" width="2.73" height="2.73"/>
    <polygon class="cls-1" points="124.55 71.36 124.55 90.45 119.09 90.45 119.09 87.73 121.82 87.73 121.82 71.36 124.55 71.36"/>
    <rect class="cls-1" x="116.36" y="85" width="2.73" height="2.73"/>
    <rect class="cls-1" x="113.64" y="82.27" width="2.73" height="2.73"/>
    <rect class="cls-1" x="110.91" y="79.55" width="2.73" height="2.73"/>
    <polygon class="cls-1" points="108.18 104.09 108.18 123.18 105.45 123.18 105.45 117.73 102.73 117.73 102.73 104.09 108.18 104.09"/>
    <polygon class="cls-1" points="108.18 79.55 108.18 101.36 102.73 101.36 102.73 87.73 105.45 87.73 105.45 79.55 108.18 79.55"/>
    <rect class="cls-1" x="100" y="104.09" width="2.73" height="5.45"/>
    <rect class="cls-1" x="59.09" y="35.91" width="2.73" height="2.73"/>
    <rect class="cls-1" x="89.09" y="123.18" width="2.73" height="8.18"/>
    <rect class="cls-1" x="78.18" y="68.64" width="5.45" height="2.73"/>
    <rect class="cls-1" x="70" y="65.91" width="8.18" height="2.73"/>
  </g>
  <g id="black">
    <polygon points="91.82 123.18 91.82 131.36 94.55 131.36 94.55 123.18 97.27 123.18 97.27 120.45 94.55 120.45 94.55 109.55 91.82 109.55 91.82 120.45 86.36 120.45 86.36 123.18 91.82 123.18"/>
    <polygon points="97.27 123.18 97.27 125.91 105.45 125.91 105.45 134.09 108.18 134.09 108.18 123.18 97.27 123.18"/>
    <rect x="53.64" y="25" width="5.45" height="2.73"/>
    <rect x="53.64" y="145" width="5.45" height="2.73"/>
    <rect x="61.82" y="35.91" width="5.45" height="2.73"/>
    <polygon points="67.27 38.64 67.27 41.36 61.82 41.36 61.82 38.64 59.09 38.64 59.09 35.91 56.36 35.91 56.36 41.36 59.09 41.36 59.09 145 61.82 145 61.82 44.09 67.27 44.09 67.27 46.82 70 46.82 70 38.64 67.27 38.64"/>
    <rect x="70" y="46.82" width="5.45" height="2.73"/>
    <rect x="75.45" y="44.09" width="2.73" height="2.73"/>
    <rect x="78.18" y="41.36" width="2.73" height="2.73"/>
    <rect x="75.45" y="38.64" width="2.73" height="2.73"/>
    <rect x="70" y="35.91" width="5.45" height="2.73"/>
    <rect x="67.27" y="49.55" width="2.73" height="19.09"/>
    <rect x="80.91" y="57.73" width="5.45" height="2.73"/>
    <rect x="80.91" y="44.09" width="5.45" height="2.73"/>
    <rect x="100" y="52.27" width="5.45" height="2.73"/>
    <rect x="105.45" y="55" width="5.45" height="2.73"/>
    <polygon points="113.64 60.45 113.64 63.18 110.91 63.18 110.91 65.91 108.18 65.91 108.18 68.64 110.91 68.64 110.91 71.36 113.64 71.36 113.64 65.91 116.36 65.91 116.36 57.73 110.91 57.73 110.91 60.45 113.64 60.45"/>
    <polygon points="121.82 63.18 121.82 65.91 116.36 65.91 116.36 71.36 113.64 71.36 113.64 74.09 116.36 74.09 116.36 82.27 119.09 82.27 119.09 68.64 124.55 68.64 124.55 63.18 121.82 63.18"/>
    <rect x="124.55" y="60.45" width="2.73" height="2.73"/>
    <rect x="121.82" y="57.73" width="2.73" height="2.73"/>
    <rect x="116.36" y="55" width="5.45" height="2.73"/>
    <rect x="105.45" y="68.64" width="2.73" height="10.91"/>
    <rect x="100" y="65.91" width="2.73" height="2.73"/>
    <rect x="91.82" y="68.64" width="8.18" height="2.73"/>
    <polygon points="86.36 52.27 86.36 55 89.09 55 89.09 57.73 91.82 57.73 91.82 55 94.55 55 94.55 52.27 100 52.27 100 49.55 91.82 49.55 91.82 52.27 86.36 52.27"/>
    <polygon points="91.82 49.55 91.82 38.64 89.09 38.64 89.09 46.82 86.36 46.82 86.36 49.55 91.82 49.55"/>
    <rect x="91.82" y="35.91" width="16.36" height="2.73"/>
    <rect x="108.18" y="38.64" width="2.73" height="2.73"/>
    <rect x="110.91" y="41.36" width="2.73" height="13.64"/>
    <rect x="119.09" y="90.45" width="5.45" height="2.73"/>
    <rect x="116.36" y="87.73" width="2.73" height="2.73"/>
    <rect x="113.64" y="85" width="2.73" height="2.73"/>
    <rect x="110.91" y="82.27" width="2.73" height="2.73"/>
    <rect x="108.18" y="79.55" width="2.73" height="2.73"/>
    <polygon points="108.18 101.36 94.55 101.36 94.55 104.09 108.18 104.09 108.18 123.18 110.91 123.18 110.91 85 108.18 85 108.18 101.36"/>
    <polygon points="86.36 101.36 94.55 101.36 94.55 98.64 86.36 98.64 86.36 65.91 83.64 65.91 83.64 71.36 78.18 71.36 78.18 74.09 83.64 74.09 83.64 106.82 86.36 106.82 86.36 101.36"/>
    <rect x="78.18" y="60.45" width="2.73" height="2.73"/>
    <rect x="75.45" y="49.55" width="2.73" height="10.91"/>
    <rect x="70" y="68.64" width="8.18" height="2.73"/>
    <polygon points="59.09 33.18 59.09 35.91 61.82 35.91 61.82 27.73 59.09 27.73 59.09 30.45 53.64 30.45 53.64 27.73 50.91 27.73 50.91 145 53.64 145 53.64 33.18 59.09 33.18"/>
    <rect x="138.18" y="172.27" width="5.45" height="2.73"/>
    <rect x="105.45" y="161.36" width="5.45" height="2.73"/>
    <rect x="110.91" y="158.64" width="2.73" height="2.73"/>
    <polygon points="102.73 150.45 102.73 153.18 100 153.18 100 155.91 102.73 155.91 102.73 161.36 105.45 161.36 105.45 150.45 102.73 150.45"/>
    <rect x="94.55" y="158.64" width="2.73" height="2.73"/>
    <rect x="97.27" y="155.91" width="2.73" height="2.73"/>
    <rect x="91.82" y="150.45" width="2.73" height="8.18"/>
    <polygon points="105.45 147.73 105.45 150.45 113.64 150.45 113.64 158.64 116.36 158.64 116.36 145 113.64 145 113.64 147.73 105.45 147.73"/>
    <rect x="102.73" y="145" width="2.73" height="2.73"/>
    <rect x="110.91" y="139.55" width="2.73" height="5.45"/>
    <rect x="91.82" y="139.55" width="2.73" height="2.73"/>
    <rect x="97.27" y="136.82" width="2.73" height="2.73"/>
    <rect x="108.18" y="134.09" width="2.73" height="5.45"/>
    <rect x="89.09" y="136.82" width="2.73" height="2.73"/>
    <rect x="86.36" y="134.09" width="2.73" height="2.73"/>
    <rect x="94.55" y="131.36" width="2.73" height="5.45"/>
    <rect x="83.64" y="131.36" width="2.73" height="2.73"/>
    <polygon points="83.64 120.45 86.36 120.45 86.36 117.73 83.64 117.73 83.64 106.82 80.91 106.82 80.91 131.36 83.64 131.36 83.64 120.45"/>
    <rect x="78.18" y="46.82" width="2.73" height="2.73"/>
    <rect x="80.91" y="49.55" width="5.45" height="2.73"/>
    <rect x="94.55" y="55" width="5.45" height="2.73"/>
    <polygon points="105.45 60.45 105.45 57.73 100 57.73 100 60.45 94.55 60.45 94.55 57.73 91.82 57.73 91.82 60.45 86.36 60.45 86.36 65.91 89.09 65.91 89.09 63.18 102.73 63.18 102.73 60.45 105.45 60.45"/>
    <polygon points="110.91 63.18 110.91 60.45 105.45 60.45 105.45 63.18 102.73 63.18 102.73 65.91 108.18 65.91 108.18 63.18 110.91 63.18"/>
    <rect x="127.27" y="63.18" width="5.45" height="2.73"/>
    <polygon points="146.36 63.18 146.36 60.45 143.64 60.45 143.64 65.91 146.36 65.91 146.36 172.27 149.09 172.27 149.09 63.18 146.36 63.18"/>
    <rect x="140.91" y="65.91" width="2.73" height="2.73"/>
    <rect x="140.91" y="57.73" width="2.73" height="2.73"/>
    <polygon points="140.91 60.45 135.45 60.45 135.45 65.91 132.73 65.91 132.73 68.64 135.45 68.64 135.45 71.36 132.73 71.36 132.73 74.09 135.45 74.09 135.45 172.27 138.18 172.27 138.18 65.91 140.91 65.91 140.91 60.45"/>
    <polygon points="124.55 68.64 124.55 90.45 127.27 90.45 127.27 71.36 132.73 71.36 132.73 68.64 124.55 68.64"/>
    <polygon points="97.27 145 102.73 145 102.73 139.55 100 139.55 100 142.27 94.55 142.27 94.55 150.45 97.27 150.45 97.27 145"/>
    <rect x="89.09" y="106.82" width="2.73" height="2.73"/>
  </g>
</svg>