<?xml version="1.0" encoding="UTF-8"?>
<svg id="dumbbell" xmlns="http://www.w3.org/2000/svg" viewBox="0 0 200 200">
  <defs>
    <style>
      .cls-1 {
        fill: gray;
      }
    </style>
  </defs>
  <g>
    <polygon points="102.73 85 102.73 63.18 105.45 63.18 105.45 60.45 102.73 60.45 102.73 57.73 97.27 57.73 97.27 55 80.91 55 80.91 57.73 94.55 57.73 94.55 65.91 97.27 65.91 97.27 60.45 100 60.45 100 98.64 94.55 98.64 94.55 101.36 100 101.36 100 125.91 102.73 125.91 102.73 87.73 105.45 87.73 105.45 85 102.73 85"/>
    <polygon points="97.27 164.09 97.27 166.82 110.91 166.82 110.91 161.36 108.18 161.36 108.18 164.09 97.27 164.09"/>
    <rect x="91.82" y="161.36" width="5.45" height="2.73"/>
    <rect x="105.45" y="158.64" width="2.73" height="2.73"/>
    <rect x="102.73" y="155.91" width="2.73" height="2.73"/>
    <rect x="100" y="128.64" width="2.73" height="8.18"/>
    <rect x="91.82" y="109.55" width="2.73" height="2.73"/>
    <rect x="78.18" y="25" width="19.09" height="2.73"/>
    <rect x="97.27" y="27.73" width="2.73" height="2.73"/>
    <rect x="75.45" y="27.73" width="2.73" height="2.73"/>
    <rect x="72.73" y="30.45" width="2.73" height="16.36"/>
    <rect x="75.45" y="46.82" width="2.73" height="5.45"/>
    <rect x="100" y="30.45" width="2.73" height="19.09"/>
    <rect x="61.82" y="71.36" width="2.73" height="13.64"/>
    <polygon points="138.18 68.64 135.45 68.64 135.45 74.09 132.73 74.09 132.73 76.82 138.18 76.82 138.18 68.64"/>
    <rect x="121.82" y="87.73" width="2.73" height="2.73"/>
    <rect x="116.36" y="90.45" width="5.45" height="2.73"/>
    <rect x="110.91" y="76.82" width="2.73" height="5.45"/>
    <rect x="108.18" y="93.18" width="8.18" height="2.73"/>
    <rect x="105.45" y="87.73" width="2.73" height="5.45"/>
    <rect x="105.45" y="63.18" width="2.73" height="5.45"/>
    <rect x="108.18" y="68.64" width="2.73" height="8.18"/>
    <rect x="97.27" y="49.55" width="2.73" height="5.45"/>
    <rect x="100" y="153.18" width="2.73" height="2.73"/>
    <rect x="97.27" y="136.82" width="2.73" height="16.36"/>
    <rect x="86.36" y="65.91" width="8.18" height="2.73"/>
    <rect x="83.64" y="63.18" width="2.73" height="2.73"/>
    <rect x="80.91" y="60.45" width="2.73" height="2.73"/>
    <rect x="78.18" y="52.27" width="2.73" height="2.73"/>
    <rect x="72.73" y="57.73" width="8.18" height="2.73"/>
    <rect x="70" y="60.45" width="2.73" height="2.73"/>
    <polygon points="72.73 98.64 70 98.64 70 120.45 72.73 120.45 72.73 117.73 78.18 117.73 78.18 115 72.73 115 72.73 104.09 94.55 104.09 94.55 101.36 72.73 101.36 72.73 98.64"/>
    <rect x="75.45" y="65.91" width="2.73" height="2.73"/>
    <rect x="72.73" y="63.18" width="2.73" height="2.73"/>
    <rect x="67.27" y="63.18" width="2.73" height="2.73"/>
    <rect x="75.45" y="76.82" width="2.73" height="5.45"/>
    <rect x="78.18" y="68.64" width="2.73" height="8.18"/>
    <rect x="64.55" y="65.91" width="2.73" height="5.45"/>
    <rect x="59.09" y="85" width="2.73" height="21.82"/>
    <polygon points="59.09 123.18 59.09 115 56.36 115 56.36 128.64 59.09 128.64 59.09 125.91 61.82 125.91 61.82 123.18 59.09 123.18"/>
    <rect x="72.73" y="82.27" width="2.73" height="16.36"/>
    <polygon points="78.18 172.27 78.18 175 91.82 175 91.82 166.82 89.09 166.82 89.09 172.27 78.18 172.27"/>
    <rect x="72.73" y="169.55" width="5.45" height="2.73"/>
    <rect x="86.36" y="164.09" width="2.73" height="2.73"/>
    <rect x="80.91" y="161.36" width="5.45" height="2.73"/>
    <rect x="80.91" y="145" width="2.73" height="13.64"/>
    <polygon points="72.73 134.09 70 134.09 70 169.55 72.73 169.55 72.73 161.36 80.91 161.36 80.91 158.64 72.73 158.64 72.73 134.09"/>
    <polygon points="70 120.45 67.27 120.45 67.27 125.91 61.82 125.91 61.82 131.36 64.55 131.36 64.55 128.64 67.27 128.64 67.27 134.09 70 134.09 70 120.45"/>
    <polygon points="91.82 112.27 89.09 112.27 89.09 125.91 86.36 125.91 86.36 131.36 89.09 131.36 89.09 161.36 91.82 161.36 91.82 155.91 97.27 155.91 97.27 153.18 91.82 153.18 91.82 128.64 100 128.64 100 125.91 91.82 125.91 91.82 112.27"/>
    <rect x="110.91" y="65.91" width="2.73" height="2.73"/>
    <polygon points="143.64 60.45 143.64 63.18 146.36 63.18 146.36 74.09 149.09 74.09 149.09 60.45 143.64 60.45"/>
    <polygon points="143.64 63.18 140.91 63.18 140.91 76.82 138.18 76.82 138.18 79.55 143.64 79.55 143.64 76.82 146.36 76.82 146.36 74.09 143.64 74.09 143.64 63.18"/>
    <polygon points="138.18 63.18 140.91 63.18 140.91 60.45 143.64 60.45 143.64 57.73 132.73 57.73 132.73 60.45 138.18 60.45 138.18 63.18"/>
    <polygon points="130 68.64 135.45 68.64 135.45 65.91 132.73 65.91 132.73 60.45 130 60.45 130 65.91 127.27 65.91 127.27 63.18 113.64 63.18 113.64 65.91 119.09 65.91 119.09 68.64 121.82 68.64 121.82 65.91 124.55 65.91 124.55 68.64 127.27 68.64 127.27 82.27 130 82.27 130 79.55 132.73 79.55 132.73 76.82 130 76.82 130 68.64"/>
    <rect x="121.82" y="68.64" width="2.73" height="10.91"/>
    <polygon points="121.82 79.55 119.09 79.55 119.09 82.27 113.64 82.27 113.64 85 124.55 85 124.55 87.73 127.27 87.73 127.27 82.27 121.82 82.27 121.82 79.55"/>
    <polygon points="80.91 139.55 80.91 136.82 78.18 136.82 78.18 134.09 75.45 134.09 75.45 139.55 80.91 139.55"/>
    <polygon points="83.64 145 86.36 145 86.36 134.09 80.91 134.09 80.91 136.82 83.64 136.82 83.64 145"/>
    <rect x="83.64" y="120.45" width="2.73" height="5.45"/>
    <rect x="78.18" y="117.73" width="5.45" height="2.73"/>
    <rect x="75.45" y="120.45" width="2.73" height="2.73"/>
    <rect x="72.73" y="123.18" width="2.73" height="10.91"/>
    <rect x="56.36" y="131.36" width="5.45" height="2.73"/>
    <rect x="53.64" y="128.64" width="2.73" height="2.73"/>
    <rect x="50.91" y="115" width="2.73" height="13.64"/>
    <rect x="53.64" y="112.27" width="2.73" height="2.73"/>
    <polygon points="59.09 115 61.82 115 61.82 123.18 64.55 123.18 64.55 106.82 61.82 106.82 61.82 109.55 56.36 109.55 56.36 112.27 59.09 112.27 59.09 115"/>
  </g>
  <g>
    <polygon class="cls-1" points="86.36 164.09 80.91 164.09 80.91 161.36 72.73 161.36 72.73 169.55 78.18 169.55 78.18 172.27 89.09 172.27 89.09 166.82 86.36 166.82 86.36 164.09"/>
    <polygon class="cls-1" points="105.45 158.64 102.73 158.64 102.73 155.91 100 155.91 100 153.18 97.27 153.18 97.27 155.91 91.82 155.91 91.82 161.36 97.27 161.36 97.27 164.09 108.18 164.09 108.18 161.36 105.45 161.36 105.45 158.64"/>
    <polygon class="cls-1" points="72.73 158.64 75.45 158.64 75.45 142.27 78.18 142.27 78.18 139.55 72.73 139.55 72.73 158.64"/>
    <rect class="cls-1" x="72.73" y="134.09" width="2.73" height="2.73"/>
    <polygon class="cls-1" points="91.82 153.18 94.55 153.18 94.55 134.09 97.27 134.09 97.27 128.64 91.82 128.64 91.82 153.18"/>
    <polygon class="cls-1" points="72.73 134.09 72.73 123.18 75.45 123.18 75.45 120.45 78.18 120.45 78.18 117.73 72.73 117.73 72.73 120.45 70 120.45 70 134.09 72.73 134.09"/>
    <rect class="cls-1" x="91.82" y="112.27" width="2.73" height="13.64"/>
    <polygon class="cls-1" points="100 30.45 97.27 30.45 97.27 27.73 78.18 27.73 78.18 30.45 75.45 30.45 75.45 38.64 100 38.64 100 30.45"/>
    <polygon class="cls-1" points="116.36 87.73 113.64 87.73 113.64 90.45 110.91 90.45 110.91 85 108.18 85 108.18 82.27 105.45 82.27 105.45 71.36 102.73 71.36 102.73 85 105.45 85 105.45 87.73 108.18 87.73 108.18 93.18 116.36 93.18 116.36 90.45 121.82 90.45 121.82 87.73 124.55 87.73 124.55 85 116.36 85 116.36 87.73"/>
    <polygon class="cls-1" points="119.09 68.64 119.09 65.91 113.64 65.91 113.64 68.64 110.91 68.64 110.91 76.82 113.64 76.82 113.64 82.27 119.09 82.27 119.09 79.55 121.82 79.55 121.82 68.64 119.09 68.64"/>
    <polygon class="cls-1" points="72.73 98.64 72.73 101.36 80.91 101.36 80.91 95.91 78.18 95.91 78.18 82.27 75.45 82.27 75.45 98.64 72.73 98.64"/>
    <polygon class="cls-1" points="72.73 98.64 72.73 82.27 75.45 82.27 75.45 76.82 78.18 76.82 78.18 68.64 75.45 68.64 75.45 74.09 72.73 74.09 72.73 79.55 70 79.55 70 95.91 67.27 95.91 67.27 120.45 70 120.45 70 98.64 72.73 98.64"/>
    <polygon class="cls-1" points="100 60.45 97.27 60.45 97.27 87.73 94.55 87.73 94.55 90.45 97.27 90.45 97.27 93.18 91.82 93.18 91.82 95.91 97.27 95.91 97.27 98.64 100 98.64 100 60.45"/>
    <rect class="cls-1" x="143.64" y="63.18" width="2.73" height="10.91"/>
    <rect class="cls-1" x="140.91" y="60.45" width="2.73" height="2.73"/>
    <polygon class="cls-1" points="138.18 60.45 132.73 60.45 132.73 65.91 135.45 65.91 135.45 68.64 138.18 68.64 138.18 76.82 140.91 76.82 140.91 63.18 138.18 63.18 138.18 60.45"/>
    <polygon class="cls-1" points="124.55 79.55 121.82 79.55 121.82 82.27 127.27 82.27 127.27 68.64 124.55 68.64 124.55 79.55"/>
    <rect class="cls-1" x="121.82" y="65.91" width="2.73" height="2.73"/>
    <polygon class="cls-1" points="100 112.27 100 101.36 94.55 101.36 94.55 104.09 97.27 104.09 97.27 112.27 100 112.27"/>
    <polygon class="cls-1" points="75.45 123.18 75.45 134.09 78.18 134.09 78.18 136.82 80.91 136.82 80.91 134.09 86.36 134.09 86.36 125.91 83.64 125.91 83.64 120.45 78.18 120.45 78.18 123.18 75.45 123.18"/>
    <polygon class="cls-1" points="80.91 104.09 72.73 104.09 72.73 115 78.18 115 78.18 117.73 80.91 117.73 80.91 104.09"/>
    <polygon class="cls-1" points="61.82 131.36 61.82 125.91 59.09 125.91 59.09 128.64 56.36 128.64 56.36 131.36 61.82 131.36"/>
    <rect class="cls-1" x="53.64" y="115" width="2.73" height="13.64"/>
    <rect class="cls-1" x="56.36" y="112.27" width="2.73" height="2.73"/>
    <rect class="cls-1" x="59.09" y="115" width="2.73" height="8.18"/>
  </g>
</svg>