<?xml version="1.0" encoding="UTF-8"?>
<svg id="pushups" xmlns="http://www.w3.org/2000/svg" viewBox="0 0 200 200">
  <defs>
    <style>
      .cls-1 {
        fill: gray;
      }
    </style>
  </defs>
  <g>
    <rect x="78.33" y="138.33" width="6.67" height="3.33"/>
    <rect x="85" y="135" width="3.33" height="3.33"/>
    <rect x="88.33" y="131.67" width="6.67" height="3.33"/>
    <polygon points="81.67 131.67 81.67 128.33 75 128.33 75 138.33 78.33 138.33 78.33 131.67 81.67 131.67"/>
    <rect x="95" y="128.33" width="3.33" height="3.33"/>
    <rect x="98.33" y="121.67" width="3.33" height="6.67"/>
    <rect x="85" y="95" width="13.33" height="3.33"/>
    <rect x="68.33" y="68.33" width="16.67" height="3.33"/>
    <rect x="85" y="65" width="6.67" height="3.33"/>
    <rect x="91.67" y="68.33" width="6.67" height="3.33"/>
    <rect x="98.33" y="71.67" width="6.67" height="3.33"/>
    <rect x="105" y="75" width="3.33" height="6.67"/>
    <polygon points="111.67 81.67 108.33 81.67 108.33 95 105 95 105 98.33 98.33 98.33 98.33 101.67 108.33 101.67 108.33 98.33 121.67 98.33 121.67 95 111.67 95 111.67 81.67"/>
    <polygon points="125 68.33 121.67 68.33 121.67 71.67 118.33 71.67 118.33 75 131.67 75 131.67 78.33 135 78.33 135 75 145 75 145 71.67 125 71.67 125 68.33"/>
    <polygon points="118.33 68.33 121.67 68.33 121.67 65 145 65 145 61.67 155 61.67 155 58.33 141.67 58.33 141.67 61.67 91.67 61.67 91.67 65 118.33 65 118.33 68.33"/>
    <rect x="171.67" y="68.33" width="3.33" height="20"/>
    <rect x="168.33" y="88.33" width="3.33" height="3.33"/>
    <rect x="161.67" y="91.67" width="6.67" height="3.33"/>
    <rect x="161.67" y="78.33" width="3.33" height="3.33"/>
    <rect x="158.33" y="65" width="13.33" height="3.33"/>
    <polygon points="151.67 81.67 151.67 85 158.33 85 158.33 91.67 161.67 91.67 161.67 81.67 151.67 81.67"/>
    <rect x="155" y="61.67" width="3.33" height="3.33"/>
    <rect x="145" y="68.33" width="13.33" height="3.33"/>
    <rect x="145" y="85" width="6.67" height="3.33"/>
    <polygon points="138.33 78.33 135 78.33 135 88.33 131.67 88.33 131.67 91.67 145 91.67 145 88.33 138.33 88.33 138.33 78.33"/>
    <rect x="121.67" y="91.67" width="10" height="3.33"/>
    <rect x="108.33" y="101.67" width="3.33" height="6.67"/>
    <rect x="81.67" y="125" width="3.33" height="3.33"/>
    <rect x="85" y="121.67" width="3.33" height="3.33"/>
    <rect x="88.33" y="115" width="3.33" height="6.67"/>
    <polygon points="95 111.67 98.33 111.67 98.33 108.33 71.67 108.33 71.67 98.33 68.33 98.33 68.33 105 58.33 105 58.33 108.33 68.33 108.33 68.33 111.67 91.67 111.67 91.67 115 95 115 95 111.67"/>
    <rect x="71.67" y="95" width="3.33" height="3.33"/>
    <rect x="75" y="91.67" width="10" height="3.33"/>
    <rect x="105" y="108.33" width="3.33" height="6.67"/>
    <rect x="101.67" y="115" width="3.33" height="6.67"/>
    <rect x="55" y="101.67" width="3.33" height="3.33"/>
    <rect x="28.33" y="101.67" width="3.33" height="3.33"/>
    <rect x="25" y="78.33" width="3.33" height="23.33"/>
    <rect x="28.33" y="75" width="3.33" height="3.33"/>
    <rect x="31.67" y="71.67" width="23.33" height="3.33"/>
    <rect x="55" y="75" width="3.33" height="6.67"/>
    <rect x="58.33" y="81.67" width="3.33" height="20"/>
    <rect x="58.33" y="71.67" width="10" height="3.33"/>
    <polygon points="31.67 111.67 35 111.67 35 108.33 48.33 108.33 48.33 115 51.67 115 51.67 108.33 55 108.33 55 105 31.67 105 31.67 111.67"/>
    <rect x="45" y="115" width="3.33" height="3.33"/>
    <rect x="41.67" y="118.33" width="3.33" height="3.33"/>
    <rect x="38.33" y="115" width="3.33" height="3.33"/>
    <rect x="31.67" y="118.33" width="6.67" height="3.33"/>
    <rect x="28.33" y="111.67" width="3.33" height="6.67"/>
  </g>
  <g>
    <rect class="cls-1" x="145" y="81.67" width="6.67" height="3.33"/>
    <rect class="cls-1" x="138.33" y="85" width="6.67" height="3.33"/>
    <rect class="cls-1" x="125" y="68.33" width="20" height="3.33"/>
    <rect class="cls-1" x="78.33" y="135" width="6.67" height="3.33"/>
    <rect class="cls-1" x="85" y="131.67" width="3.33" height="3.33"/>
    <rect class="cls-1" x="88.33" y="128.33" width="6.67" height="3.33"/>
    <rect class="cls-1" x="95" y="121.67" width="3.33" height="6.67"/>
    <polygon class="cls-1" points="105 81.67 105 85 101.67 85 101.67 88.33 91.67 88.33 91.67 91.67 85 91.67 85 95 98.33 95 98.33 98.33 105 98.33 105 95 108.33 95 108.33 81.67 105 81.67"/>
    <polygon class="cls-1" points="168.33 71.67 168.33 85 165 85 165 81.67 161.67 81.67 161.67 91.67 168.33 91.67 168.33 88.33 171.67 88.33 171.67 71.67 168.33 71.67"/>
    <polygon class="cls-1" points="121.67 91.67 131.67 91.67 131.67 88.33 135 88.33 135 78.33 131.67 78.33 131.67 81.67 121.67 81.67 121.67 85 111.67 85 111.67 95 121.67 95 121.67 91.67"/>
    <rect class="cls-1" x="71.67" y="105" width="26.67" height="3.33"/>
    <polygon class="cls-1" points="68.33 98.33 71.67 98.33 71.67 95 65 95 65 101.67 58.33 101.67 58.33 105 68.33 105 68.33 98.33"/>
    <rect class="cls-1" x="41.67" y="115" width="3.33" height="3.33"/>
    <rect class="cls-1" x="45" y="111.67" width="3.33" height="3.33"/>
    <polygon class="cls-1" points="45 95 48.33 95 48.33 91.67 51.67 91.67 51.67 88.33 58.33 88.33 58.33 81.67 55 81.67 55 75 31.67 75 31.67 78.33 28.33 78.33 28.33 98.33 45 98.33 45 95"/>
    <rect class="cls-1" x="31.67" y="115" width="6.67" height="3.33"/>
    <polygon class="cls-1" points="158.33 85 151.67 85 151.67 88.33 145 88.33 145 91.67 131.67 91.67 131.67 95 121.67 95 121.67 98.33 111.67 98.33 111.67 95 108.33 95 108.33 101.67 111.67 101.67 111.67 108.33 108.33 108.33 108.33 115 105 115 105 121.67 101.67 121.67 101.67 128.33 108.33 128.33 108.33 125 115 125 115 121.67 121.67 121.67 121.67 118.33 128.33 118.33 128.33 115 131.67 115 131.67 111.67 141.67 111.67 141.67 108.33 148.33 108.33 148.33 105 151.67 105 151.67 101.67 161.67 101.67 161.67 98.33 168.33 98.33 168.33 95 161.67 95 161.67 91.67 158.33 91.67 158.33 85"/>
    <polygon class="cls-1" points="81.67 125 85 125 85 121.67 88.33 121.67 88.33 115 91.67 115 91.67 111.67 68.33 111.67 68.33 108.33 58.33 108.33 58.33 105 55 105 55 108.33 51.67 108.33 51.67 115 48.33 115 48.33 118.33 45 118.33 45 121.67 41.67 121.67 41.67 118.33 38.33 118.33 38.33 121.67 35 121.67 35 128.33 38.33 128.33 38.33 131.67 45 131.67 45 135 51.67 135 51.67 138.33 68.33 138.33 68.33 135 75 135 75 128.33 81.67 128.33 81.67 125"/>
  </g>
</svg>