<?xml version="1.0" encoding="UTF-8"?>
<svg id="barbell" xmlns="http://www.w3.org/2000/svg" viewBox="0 0 200 200">
  <defs>
    <style>
      .cls-1 {
        fill: gray;
      }
    </style>
  </defs>
  <g id="grey">
    <rect class="cls-1" x="61" y="164.5" width="3" height="3"/>
    <polygon class="cls-1" points="88 149.5 85 149.5 85 146.5 73 146.5 73 152.5 76 152.5 76 155.5 82 155.5 82 158.5 91 158.5 91 152.5 88 152.5 88 149.5"/>
    <rect class="cls-1" x="79" y="134.5" width="6" height="3"/>
    <polygon class="cls-1" points="118 137.5 115 137.5 115 134.5 103 134.5 103 140.5 106 140.5 106 143.5 121 143.5 121 140.5 118 140.5 118 137.5"/>
    <polygon class="cls-1" points="76 131.5 73 131.5 73 134.5 70 134.5 70 137.5 76 137.5 76 131.5"/>
    <rect class="cls-1" x="91" y="125.5" width="6" height="3"/>
    <rect class="cls-1" x="97" y="122.5" width="6" height="3"/>
    <rect class="cls-1" x="103" y="119.5" width="6" height="3"/>
    <polygon class="cls-1" points="118 32.5 115 32.5 115 29.5 94 29.5 94 32.5 91 32.5 91 41.5 118 41.5 118 32.5"/>
    <polygon class="cls-1" points="94 92.5 94 89.5 97 89.5 97 86.5 100 86.5 100 83.5 103 83.5 103 80.5 106 80.5 106 77.5 109 77.5 109 74.5 112 74.5 112 71.5 115 71.5 115 74.5 112 74.5 112 77.5 118 77.5 118 59.5 115 59.5 115 62.5 109 62.5 109 65.5 106 65.5 106 68.5 100 68.5 100 71.5 97 71.5 97 74.5 94 74.5 94 86.5 91 86.5 91 92.5 94 92.5"/>
    <polygon class="cls-1" points="64 92.5 73 92.5 73 83.5 70 83.5 70 86.5 61 86.5 61 89.5 64 89.5 64 92.5"/>
    <polygon class="cls-1" points="91 86.5 91 71.5 88 71.5 88 83.5 85 83.5 85 98.5 82 98.5 82 122.5 85 122.5 85 101.5 88 101.5 88 86.5 91 86.5"/>
    <polygon class="cls-1" points="100 92.5 100 89.5 97 89.5 97 92.5 94 92.5 94 95.5 91 95.5 91 101.5 88 101.5 88 104.5 91 104.5 91 107.5 97 107.5 97 101.5 100 101.5 100 98.5 103 98.5 103 92.5 100 92.5"/>
    <polygon class="cls-1" points="124 86.5 121 86.5 121 80.5 118 80.5 118 89.5 121 89.5 121 107.5 124 107.5 124 116.5 127 116.5 127 104.5 124 104.5 124 86.5"/>
    <polygon class="cls-1" points="166 92.5 166 89.5 163 89.5 163 95.5 166 95.5 166 113.5 169 113.5 169 92.5 166 92.5"/>
    <polygon class="cls-1" points="160 86.5 157 86.5 157 83.5 154 83.5 154 80.5 145 80.5 145 83.5 148 83.5 148 86.5 151 86.5 151 89.5 154 89.5 154 92.5 157 92.5 157 101.5 160 101.5 160 119.5 157 119.5 157 122.5 163 122.5 163 95.5 160 95.5 160 86.5"/>
    <polygon class="cls-1" points="142 107.5 142 104.5 133 104.5 133 107.5 130 107.5 130 110.5 136 110.5 136 107.5 142 107.5"/>
    <polygon class="cls-1" points="154 101.5 154 95.5 151 95.5 151 89.5 148 89.5 148 86.5 145 86.5 145 83.5 130 83.5 130 86.5 127 86.5 127 104.5 133 104.5 133 101.5 145 101.5 145 107.5 142 107.5 142 110.5 136 110.5 136 113.5 130 113.5 130 116.5 133 116.5 133 122.5 139 122.5 139 125.5 151 125.5 151 122.5 154 122.5 154 119.5 157 119.5 157 101.5 154 101.5"/>
    <polygon class="cls-1" points="115 113.5 112 113.5 112 116.5 109 116.5 109 119.5 115 119.5 115 113.5"/>
    <polygon class="cls-1" points="103 128.5 103 131.5 112 131.5 112 122.5 109 122.5 109 128.5 103 128.5"/>
    <polygon class="cls-1" points="115 110.5 115 101.5 112 101.5 112 98.5 103 98.5 103 101.5 109 101.5 109 113.5 112 113.5 112 110.5 115 110.5"/>
    <polygon class="cls-1" points="73 116.5 73 95.5 64 95.5 64 98.5 67 98.5 67 104.5 70 104.5 70 116.5 73 116.5"/>
    <polygon class="cls-1" points="49 158.5 49 146.5 46 146.5 46 140.5 43 140.5 43 137.5 40 137.5 40 134.5 31 134.5 31 137.5 28 137.5 28 146.5 34 146.5 34 143.5 37 143.5 37 146.5 40 146.5 40 152.5 37 152.5 37 155.5 31 155.5 31 158.5 34 158.5 34 161.5 37 161.5 37 164.5 46 164.5 46 158.5 49 158.5"/>
    <polygon class="cls-1" points="43 137.5 46 137.5 46 140.5 49 140.5 49 146.5 52 146.5 52 158.5 49 158.5 49 161.5 55 161.5 55 143.5 52 143.5 52 137.5 49 137.5 49 134.5 46 134.5 46 131.5 40 131.5 40 134.5 43 134.5 43 137.5"/>
    <rect class="cls-1" x="31" y="128.5" width="3" height="3"/>
    <polygon class="cls-1" points="67 128.5 64 128.5 64 125.5 61 125.5 61 122.5 55 122.5 55 119.5 46 119.5 46 122.5 52 122.5 52 125.5 55 125.5 55 128.5 52 128.5 52 125.5 46 125.5 46 122.5 40 122.5 40 125.5 34 125.5 34 128.5 46 128.5 46 131.5 49 131.5 49 134.5 52 134.5 52 137.5 55 137.5 55 143.5 58 143.5 58 161.5 55 161.5 55 164.5 46 164.5 46 167.5 43 167.5 43 170.5 55 170.5 55 167.5 58 167.5 58 164.5 61 164.5 61 140.5 58 140.5 58 131.5 61 131.5 61 140.5 64 140.5 64 164.5 67 164.5 67 158.5 70 158.5 70 137.5 67 137.5 67 128.5"/>
  </g>
  <g id="black">
    <polygon points="79 140.5 82 140.5 82 143.5 73 143.5 73 140.5 76 140.5 76 137.5 70 137.5 70 158.5 73 158.5 73 155.5 76 155.5 76 152.5 73 152.5 73 146.5 85 146.5 85 137.5 79 137.5 79 140.5"/>
    <rect x="85" y="134.5" width="3" height="3"/>
    <polygon points="91 125.5 88 125.5 88 134.5 91 134.5 91 131.5 97 131.5 97 128.5 91 128.5 91 125.5"/>
    <rect x="88" y="32.5" width="3" height="18"/>
    <rect x="91" y="50.5" width="3" height="3"/>
    <rect x="97" y="59.5" width="18" height="3"/>
    <rect x="115" y="53.5" width="3" height="6"/>
    <rect x="118" y="32.5" width="3" height="21"/>
    <rect x="115" y="29.5" width="3" height="3"/>
    <rect x="94" y="26.5" width="21" height="3"/>
    <rect x="91" y="29.5" width="3" height="3"/>
    <rect x="82" y="53.5" width="9" height="3"/>
    <rect x="73" y="59.5" width="3" height="3"/>
    <rect x="70" y="62.5" width="3" height="3"/>
    <rect x="67" y="65.5" width="3" height="3"/>
    <rect x="64" y="68.5" width="3" height="3"/>
    <rect x="61" y="71.5" width="3" height="3"/>
    <rect x="76" y="68.5" width="3" height="3"/>
    <rect x="124" y="116.5" width="3" height="3"/>
    <rect x="124" y="86.5" width="3" height="18"/>
    <rect x="118" y="119.5" width="6" height="3"/>
    <rect x="115" y="101.5" width="3" height="9"/>
    <rect x="115" y="113.5" width="3" height="6"/>
    <rect x="112" y="71.5" width="3" height="3"/>
    <polygon points="112 77.5 112 74.5 109 74.5 109 77.5 106 77.5 106 80.5 109 80.5 109 89.5 112 89.5 112 80.5 121 80.5 121 86.5 124 86.5 124 77.5 121 77.5 121 59.5 118 59.5 118 77.5 112 77.5"/>
    <rect x="112" y="110.5" width="3" height="3"/>
    <rect x="103" y="80.5" width="3" height="3"/>
    <rect x="100" y="83.5" width="3" height="3"/>
    <rect x="97" y="86.5" width="3" height="3"/>
    <rect x="94" y="89.5" width="3" height="3"/>
    <rect x="91" y="71.5" width="3" height="15"/>
    <rect x="94" y="53.5" width="3" height="6"/>
    <rect x="88" y="68.5" width="3" height="3"/>
    <polygon points="85 65.5 85 62.5 82 62.5 82 65.5 79 65.5 79 68.5 88 68.5 88 65.5 85 65.5"/>
    <rect x="76" y="56.5" width="6" height="3"/>
    <rect x="58" y="74.5" width="3" height="3"/>
    <rect x="55" y="77.5" width="3" height="6"/>
    <rect x="58" y="83.5" width="3" height="6"/>
    <rect x="61" y="89.5" width="3" height="3"/>
    <polygon points="76 137.5 79 137.5 79 128.5 76 128.5 76 71.5 73 71.5 73 92.5 64 92.5 64 95.5 73 95.5 73 116.5 70 116.5 70 119.5 73 119.5 73 131.5 76 131.5 76 137.5"/>
    <polygon points="91 95.5 94 95.5 94 92.5 91 92.5 91 86.5 88 86.5 88 101.5 91 101.5 91 95.5"/>
    <polygon points="97 107.5 91 107.5 91 110.5 97 110.5 97 113.5 100 113.5 100 116.5 103 116.5 103 110.5 100 110.5 100 101.5 97 101.5 97 107.5"/>
    <polygon points="46 167.5 46 164.5 37 164.5 37 167.5 40 167.5 40 170.5 43 170.5 43 167.5 46 167.5"/>
    <polygon points="49 158.5 46 158.5 46 164.5 55 164.5 55 161.5 49 161.5 49 158.5"/>
    <rect x="91" y="122.5" width="6" height="3"/>
    <rect x="103" y="122.5" width="6" height="3"/>
    <rect x="97" y="119.5" width="6" height="3"/>
    <rect x="100" y="98.5" width="3" height="3"/>
    <rect x="100" y="89.5" width="3" height="3"/>
    <polygon points="169 92.5 169 113.5 172 113.5 172 98.5 175 98.5 175 92.5 169 92.5"/>
    <rect x="166" y="89.5" width="3" height="3"/>
    <polygon points="166 95.5 163 95.5 163 122.5 166 122.5 166 116.5 169 116.5 169 113.5 166 113.5 166 95.5"/>
    <polygon points="157 119.5 154 119.5 154 122.5 151 122.5 151 125.5 139 125.5 139 128.5 154 128.5 154 125.5 163 125.5 163 122.5 157 122.5 157 119.5"/>
    <rect x="157" y="101.5" width="3" height="18"/>
    <rect x="133" y="122.5" width="6" height="3"/>
    <polygon points="157 83.5 157 86.5 160 86.5 160 95.5 163 95.5 163 89.5 166 89.5 166 86.5 163 86.5 163 83.5 160 83.5 160 80.5 154 80.5 154 83.5 157 83.5"/>
    <polygon points="154 95.5 154 101.5 157 101.5 157 92.5 154 92.5 154 89.5 151 89.5 151 95.5 154 95.5"/>
    <rect x="148" y="86.5" width="3" height="3"/>
    <rect x="145" y="83.5" width="3" height="3"/>
    <polygon points="145 80.5 154 80.5 154 77.5 142 77.5 142 80.5 130 80.5 130 83.5 145 83.5 145 80.5"/>
    <rect x="136" y="107.5" width="6" height="3"/>
    <polygon points="142 107.5 145 107.5 145 101.5 133 101.5 133 104.5 142 104.5 142 107.5"/>
    <polygon points="136 113.5 136 110.5 130 110.5 130 107.5 133 107.5 133 104.5 127 104.5 127 116.5 130 116.5 130 113.5 136 113.5"/>
    <rect x="130" y="116.5" width="3" height="6"/>
    <rect x="127" y="83.5" width="3" height="3"/>
    <polygon points="106 95.5 106 92.5 103 92.5 103 98.5 112 98.5 112 101.5 115 101.5 115 89.5 112 89.5 112 95.5 106 95.5"/>
    <rect x="109" y="113.5" width="3" height="3"/>
    <polygon points="109 119.5 109 122.5 112 122.5 112 131.5 103 131.5 103 125.5 97 125.5 97 128.5 100 128.5 100 140.5 103 140.5 103 134.5 115 134.5 115 119.5 109 119.5"/>
    <rect x="103" y="116.5" width="6" height="3"/>
    <polygon points="55 98.5 55 83.5 52 83.5 52 101.5 55 101.5 55 107.5 58 107.5 58 98.5 55 98.5"/>
    <rect x="58" y="107.5" width="3" height="3"/>
    <rect x="61" y="110.5" width="6" height="3"/>
    <rect x="67" y="113.5" width="3" height="3"/>
    <polygon points="91 107.5 91 104.5 88 104.5 88 101.5 85 101.5 85 125.5 88 125.5 88 107.5 91 107.5"/>
    <polygon points="31 134.5 40 134.5 40 131.5 46 131.5 46 128.5 34 128.5 34 131.5 31 131.5 31 128.5 28 128.5 28 137.5 31 137.5 31 134.5"/>
    <rect x="40" y="134.5" width="3" height="3"/>
    <rect x="43" y="137.5" width="3" height="3"/>
    <rect x="46" y="140.5" width="3" height="6"/>
    <rect x="49" y="146.5" width="3" height="12"/>
    <rect x="34" y="161.5" width="3" height="3"/>
    <rect x="31" y="158.5" width="3" height="3"/>
    <polygon points="37 155.5 37 152.5 31 152.5 31 149.5 34 149.5 34 146.5 28 146.5 28 137.5 25 137.5 25 155.5 28 155.5 28 158.5 31 158.5 31 155.5 37 155.5"/>
    <rect x="37" y="146.5" width="3" height="6"/>
    <rect x="34" y="143.5" width="3" height="3"/>
    <rect x="43" y="170.5" width="12" height="3"/>
    <polygon points="61 164.5 58 164.5 58 167.5 55 167.5 55 170.5 64 170.5 64 167.5 61 167.5 61 164.5"/>
    <rect x="64" y="164.5" width="3" height="3"/>
    <rect x="61" y="140.5" width="3" height="24"/>
    <rect x="67" y="158.5" width="3" height="6"/>
    <rect x="82" y="158.5" width="9" height="3"/>
    <rect x="76" y="155.5" width="6" height="3"/>
    <rect x="91" y="152.5" width="3" height="6"/>
    <rect x="88" y="149.5" width="3" height="3"/>
    <rect x="85" y="146.5" width="3" height="3"/>
    <polygon points="121 140.5 121 143.5 106 143.5 106 146.5 124 146.5 124 137.5 118 137.5 118 140.5 121 140.5"/>
    <rect x="103" y="140.5" width="3" height="3"/>
    <rect x="115" y="134.5" width="3" height="3"/>
    <rect x="58" y="131.5" width="3" height="9"/>
    <rect x="46" y="131.5" width="3" height="3"/>
    <rect x="49" y="134.5" width="3" height="3"/>
    <rect x="52" y="137.5" width="3" height="6"/>
    <rect x="55" y="143.5" width="3" height="18"/>
    <rect x="55" y="128.5" width="3" height="3"/>
    <rect x="52" y="125.5" width="3" height="3"/>
    <rect x="46" y="122.5" width="6" height="3"/>
    <rect x="40" y="119.5" width="6" height="3"/>
    <rect x="34" y="122.5" width="6" height="3"/>
    <rect x="31" y="125.5" width="3" height="3"/>
    <rect x="46" y="116.5" width="9" height="3"/>
    <rect x="55" y="119.5" width="6" height="3"/>
    <rect x="61" y="122.5" width="3" height="3"/>
    <rect x="64" y="125.5" width="3" height="3"/>
    <polygon points="70 137.5 70 134.5 73 134.5 73 131.5 70 131.5 70 128.5 67 128.5 67 137.5 70 137.5"/>
  </g>
</svg>