<?xml version="1.0" encoding="UTF-8"?>
<svg id="maxhangs" xmlns="http://www.w3.org/2000/svg" viewBox="0 0 200 200">
  <defs>
    <style>
      .cls-1 {
        fill: gray;
      }
    </style>
  </defs>
  <g>
    <polygon points="77.23 27.68 85.27 27.68 85.27 25 74.55 25 74.55 30.36 77.23 30.36 77.23 27.68"/>
    <polygon points="85.27 81.25 85.27 78.57 79.91 78.57 79.91 70.54 77.23 70.54 77.23 83.93 79.91 83.93 79.91 81.25 85.27 81.25"/>
    <polygon points="87.95 57.14 87.95 59.82 85.27 59.82 85.27 67.86 87.95 67.86 87.95 75.89 90.62 75.89 90.62 57.14 87.95 57.14"/>
    <rect x="90.62" y="54.46" width="2.68" height="2.68"/>
    <rect x="93.3" y="51.79" width="2.68" height="2.68"/>
    <rect x="95.98" y="49.11" width="16.07" height="2.68"/>
    <rect x="112.05" y="51.79" width="2.68" height="2.68"/>
    <rect x="122.77" y="41.07" width="2.68" height="18.75"/>
    <polygon points="82.59 38.39 82.59 35.71 85.27 35.71 85.27 41.07 87.95 41.07 87.95 38.39 120.09 38.39 120.09 41.07 122.77 41.07 122.77 35.71 87.95 35.71 87.95 33.04 122.77 33.04 122.77 30.36 87.95 30.36 87.95 27.68 85.27 27.68 85.27 33.04 79.91 33.04 79.91 35.71 45.09 35.71 45.09 33.04 74.55 33.04 74.55 30.36 42.41 30.36 42.41 38.39 74.55 38.39 74.55 70.54 77.23 70.54 77.23 38.39 82.59 38.39"/>
    <rect x="122.77" y="27.68" width="10.71" height="2.68"/>
    <path d="M133.48,30.36v5.36h-5.36v-2.68h-5.36v2.68h2.68v2.68h8.04v2.68h2.68v-2.68h21.43v-8.04h-24.11ZM154.91,35.71h-18.75v-2.68h18.75v2.68Z"/>
    <polygon points="120.09 54.46 114.73 54.46 114.73 57.14 117.41 57.14 117.41 62.5 114.73 62.5 114.73 65.18 117.41 65.18 117.41 78.57 120.09 78.57 120.09 73.21 122.77 73.21 122.77 70.54 120.09 70.54 120.09 62.5 122.77 62.5 122.77 59.82 120.09 59.82 120.09 54.46"/>
    <rect x="114.73" y="78.57" width="2.68" height="2.68"/>
    <rect x="112.05" y="65.18" width="2.68" height="2.68"/>
    <polygon points="112.05 73.21 112.05 75.89 106.7 75.89 106.7 73.21 104.02 73.21 104.02 78.57 114.73 78.57 114.73 73.21 112.05 73.21"/>
    <polygon points="98.66 86.61 101.34 86.61 101.34 83.93 112.05 83.93 112.05 89.29 114.73 89.29 114.73 81.25 98.66 81.25 98.66 86.61"/>
    <rect x="106.7" y="70.54" width="5.36" height="2.68"/>
    <rect x="104.02" y="65.18" width="2.68" height="2.68"/>
    <rect x="101.34" y="62.5" width="2.68" height="2.68"/>
    <rect x="95.98" y="78.57" width="2.68" height="2.68"/>
    <polygon points="93.3 78.57 95.98 78.57 95.98 75.89 90.62 75.89 90.62 83.93 93.3 83.93 93.3 94.64 95.98 94.64 95.98 81.25 93.3 81.25 93.3 78.57"/>
    <rect x="90.62" y="94.64" width="2.68" height="2.68"/>
    <rect x="82.59" y="41.07" width="2.68" height="18.75"/>
    <rect x="85.27" y="75.89" width="2.68" height="2.68"/>
    <polygon points="90.62 100 90.62 97.32 85.27 97.32 85.27 105.36 87.95 105.36 87.95 100 90.62 100"/>
    <rect x="82.59" y="89.29" width="2.68" height="8.04"/>
    <rect x="79.91" y="83.93" width="2.68" height="5.36"/>
    <rect x="79.91" y="172.32" width="5.36" height="2.68"/>
    <rect x="77.23" y="158.93" width="2.68" height="13.39"/>
    <rect x="85.27" y="161.61" width="2.68" height="10.71"/>
    <polygon points="71.88 158.93 69.2 158.93 69.2 161.61 74.55 161.61 74.55 156.25 71.88 156.25 71.88 158.93"/>
    <polygon points="93.3 158.93 87.95 158.93 87.95 161.61 90.62 161.61 90.62 164.29 101.34 164.29 101.34 161.61 93.3 161.61 93.3 158.93"/>
    <polygon points="106.7 145.54 109.38 145.54 109.38 134.82 106.7 134.82 106.7 142.86 104.02 142.86 104.02 145.54 95.98 145.54 95.98 148.21 104.02 148.21 104.02 158.93 101.34 158.93 101.34 161.61 117.41 161.61 117.41 158.93 106.7 158.93 106.7 145.54"/>
    <rect x="117.41" y="153.57" width="2.68" height="5.36"/>
    <rect x="74.55" y="153.57" width="2.68" height="2.68"/>
    <rect x="77.23" y="150.89" width="2.68" height="2.68"/>
    <polygon points="90.62 148.21 90.62 150.89 93.3 150.89 93.3 145.54 95.98 145.54 95.98 142.86 90.62 142.86 90.62 145.54 85.27 145.54 85.27 148.21 90.62 148.21"/>
    <rect x="109.38" y="145.54" width="8.04" height="2.68"/>
    <rect x="66.52" y="145.54" width="2.68" height="13.39"/>
    <rect x="74.55" y="145.54" width="2.68" height="5.36"/>
    <rect x="79.91" y="142.86" width="5.36" height="2.68"/>
    <rect x="77.23" y="140.18" width="2.68" height="2.68"/>
    <rect x="69.2" y="140.18" width="2.68" height="5.36"/>
    <rect x="71.88" y="137.5" width="5.36" height="2.68"/>
    <rect x="87.95" y="121.43" width="2.68" height="21.43"/>
    <rect x="90.62" y="118.75" width="5.36" height="2.68"/>
    <rect x="101.34" y="86.61" width="2.68" height="2.68"/>
    <rect x="104.02" y="89.29" width="8.04" height="2.68"/>
    <rect x="122.77" y="73.21" width="2.68" height="2.68"/>
    <rect x="130.8" y="41.07" width="2.68" height="24.11"/>
    <rect x="128.12" y="65.18" width="2.68" height="10.71"/>
    <rect x="125.45" y="75.89" width="2.68" height="8.04"/>
    <polygon points="122.77 86.61 120.09 86.61 120.09 118.75 117.41 118.75 117.41 121.43 120.09 121.43 120.09 142.86 117.41 142.86 117.41 145.54 120.09 145.54 120.09 153.57 122.77 153.57 122.77 89.29 125.45 89.29 125.45 83.93 122.77 83.93 122.77 86.61"/>
    <rect x="117.41" y="81.25" width="2.68" height="5.36"/>
    <rect x="112.05" y="129.46" width="2.68" height="2.68"/>
    <rect x="109.38" y="132.14" width="2.68" height="2.68"/>
    <rect x="95.98" y="121.43" width="21.43" height="2.68"/>
    <rect x="87.95" y="105.36" width="2.68" height="13.39"/>
    <polygon points="87.95 156.25 85.27 156.25 85.27 153.57 79.91 153.57 79.91 158.93 87.95 158.93 87.95 156.25"/>
  </g>
  <g>
    <rect class="cls-1" x="93.3" y="158.93" width="8.04" height="2.68"/>
    <polygon class="cls-1" points="79.91 172.32 85.27 172.32 85.27 161.61 87.95 161.61 87.95 158.93 79.91 158.93 79.91 172.32"/>
    <polygon class="cls-1" points="79.91 153.57 85.27 153.57 85.27 150.89 82.59 150.89 82.59 148.21 77.23 148.21 77.23 150.89 79.91 150.89 79.91 153.57"/>
    <polygon class="cls-1" points="112.05 153.57 109.38 153.57 109.38 148.21 106.7 148.21 106.7 158.93 114.73 158.93 114.73 156.25 112.05 156.25 112.05 153.57"/>
    <polygon class="cls-1" points="74.55 145.54 77.23 145.54 77.23 140.18 71.88 140.18 71.88 145.54 69.2 145.54 69.2 158.93 71.88 158.93 71.88 156.25 74.55 156.25 74.55 153.57 77.23 153.57 77.23 150.89 74.55 150.89 74.55 145.54"/>
    <rect class="cls-1" x="109.38" y="134.82" width="2.68" height="10.71"/>
    <rect class="cls-1" x="112.05" y="132.14" width="2.68" height="2.68"/>
    <polygon class="cls-1" points="90.62 142.86 95.98 142.86 95.98 129.46 98.66 129.46 98.66 126.79 95.98 126.79 95.98 121.43 90.62 121.43 90.62 142.86"/>
    <rect class="cls-1" x="45.09" y="33.04" width="29.46" height="2.68"/>
    <rect class="cls-1" x="87.95" y="33.04" width="34.82" height="2.68"/>
    <rect class="cls-1" x="136.16" y="33.04" width="18.75" height="2.68"/>
    <polygon class="cls-1" points="114.73 54.46 112.05 54.46 112.05 51.79 95.98 51.79 95.98 54.46 93.3 54.46 93.3 57.14 90.62 57.14 90.62 65.18 95.98 65.18 95.98 62.5 98.66 62.5 98.66 59.82 117.41 59.82 117.41 57.14 114.73 57.14 114.73 54.46"/>
    <polygon class="cls-1" points="79.91 43.75 82.59 43.75 82.59 41.07 77.23 41.07 77.23 70.54 79.91 70.54 79.91 43.75"/>
    <rect class="cls-1" x="79.91" y="70.54" width="2.68" height="8.04"/>
    <polygon class="cls-1" points="125.45 43.75 128.12 43.75 128.12 62.5 125.45 62.5 125.45 67.86 122.77 67.86 122.77 73.21 125.45 73.21 125.45 75.89 128.12 75.89 128.12 65.18 130.8 65.18 130.8 41.07 125.45 41.07 125.45 43.75"/>
    <polygon class="cls-1" points="122.77 81.25 120.09 81.25 120.09 86.61 122.77 86.61 122.77 83.93 125.45 83.93 125.45 75.89 122.77 75.89 122.77 81.25"/>
    <polygon class="cls-1" points="98.66 113.39 95.98 113.39 95.98 94.64 93.3 94.64 93.3 97.32 90.62 97.32 90.62 100 87.95 100 87.95 105.36 90.62 105.36 90.62 118.75 95.98 118.75 95.98 121.43 101.34 121.43 101.34 118.75 98.66 118.75 98.66 113.39"/>
    <polygon class="cls-1" points="87.95 89.29 87.95 86.61 85.27 86.61 85.27 81.25 82.59 81.25 82.59 89.29 85.27 89.29 85.27 97.32 90.62 97.32 90.62 89.29 87.95 89.29"/>
  </g>
</svg>