<?xml version="1.0" encoding="UTF-8"?>
<svg id="squats" xmlns="http://www.w3.org/2000/svg" viewBox="0 0 200 200">
  <defs>
    <style>
      .cls-1 {
        fill: gray;
      }
    </style>
  </defs>
  <g id="black">
    <rect x="85.33" y="25" width="19.57" height="3.26"/>
    <rect x="82.07" y="28.26" width="3.26" height="3.26"/>
    <rect x="78.8" y="31.52" width="3.26" height="19.57"/>
    <rect x="104.89" y="28.26" width="6.52" height="3.26"/>
    <rect x="111.41" y="31.52" width="3.26" height="22.83"/>
    <rect x="82.07" y="51.09" width="3.26" height="6.52"/>
    <rect x="114.67" y="83.7" width="6.52" height="3.26"/>
    <rect x="55.98" y="77.17" width="3.26" height="6.52"/>
    <rect x="59.24" y="70.65" width="3.26" height="6.52"/>
    <rect x="62.5" y="67.39" width="3.26" height="3.26"/>
    <rect x="65.76" y="64.13" width="3.26" height="3.26"/>
    <rect x="72.28" y="57.61" width="9.78" height="3.26"/>
    <rect x="111.41" y="57.61" width="3.26" height="3.26"/>
    <rect x="114.67" y="60.87" width="6.52" height="3.26"/>
    <rect x="127.72" y="67.39" width="6.52" height="3.26"/>
    <rect x="153.8" y="77.17" width="3.26" height="6.52"/>
    <rect x="130.98" y="80.43" width="9.78" height="3.26"/>
    <rect x="150.54" y="73.91" width="3.26" height="3.26"/>
    <rect x="140.76" y="83.7" width="13.04" height="3.26"/>
    <rect x="134.24" y="70.65" width="16.3" height="3.26"/>
    <rect x="124.46" y="77.17" width="6.52" height="3.26"/>
    <rect x="124.46" y="90.22" width="3.26" height="6.52"/>
    <rect x="101.63" y="93.48" width="9.78" height="3.26"/>
    <rect x="121.2" y="86.96" width="3.26" height="3.26"/>
    <rect x="111.41" y="96.74" width="13.04" height="3.26"/>
    <rect x="111.41" y="73.91" width="13.04" height="3.26"/>
    <rect x="121.2" y="64.13" width="6.52" height="3.26"/>
    <rect x="108.15" y="54.35" width="3.26" height="3.26"/>
    <rect x="108.15" y="60.87" width="3.26" height="13.04"/>
    <rect x="104.89" y="57.61" width="3.26" height="3.26"/>
    <rect x="104.89" y="80.43" width="9.78" height="3.26"/>
    <rect x="104.89" y="73.91" width="3.26" height="3.26"/>
    <rect x="88.59" y="60.87" width="16.3" height="3.26"/>
    <rect x="98.37" y="77.17" width="6.52" height="3.26"/>
    <polygon points="95.11 90.22 95.11 86.96 85.33 86.96 85.33 90.22 91.85 90.22 91.85 96.74 88.59 96.74 88.59 100 98.37 100 98.37 96.74 95.11 96.74 95.11 93.48 101.63 93.48 101.63 90.22 95.11 90.22"/>
    <rect x="85.33" y="57.61" width="3.26" height="3.26"/>
    <rect x="82.07" y="67.39" width="3.26" height="3.26"/>
    <rect x="85.33" y="70.65" width="6.52" height="3.26"/>
    <rect x="91.85" y="73.91" width="6.52" height="3.26"/>
    <rect x="75.54" y="64.13" width="6.52" height="3.26"/>
    <rect x="78.8" y="83.7" width="6.52" height="3.26"/>
    <rect x="72.28" y="80.43" width="6.52" height="3.26"/>
    <rect x="69.02" y="77.17" width="3.26" height="3.26"/>
    <rect x="69.02" y="60.87" width="3.26" height="3.26"/>
    <rect x="82.07" y="100" width="6.52" height="3.26"/>
    <rect x="59.24" y="103.26" width="22.83" height="3.26"/>
    <rect x="52.72" y="100" width="6.52" height="3.26"/>
    <rect x="49.46" y="96.74" width="3.26" height="3.26"/>
    <rect x="46.2" y="90.22" width="3.26" height="6.52"/>
    <rect x="49.46" y="86.96" width="3.26" height="3.26"/>
    <rect x="52.72" y="83.7" width="3.26" height="3.26"/>
    <rect x="46.2" y="100" width="3.26" height="3.26"/>
    <rect x="42.93" y="103.26" width="3.26" height="9.78"/>
    <rect x="46.2" y="113.04" width="3.26" height="3.26"/>
    <rect x="49.46" y="116.3" width="3.26" height="3.26"/>
    <rect x="52.72" y="119.57" width="6.52" height="3.26"/>
    <polygon points="59.24 122.83 59.24 126.09 62.5 126.09 62.5 129.35 65.76 129.35 65.76 122.83 59.24 122.83"/>
    <polygon points="69.02 132.61 72.28 132.61 72.28 129.35 65.76 129.35 65.76 135.87 69.02 135.87 69.02 132.61"/>
    <rect x="62.5" y="135.87" width="3.26" height="13.04"/>
    <polygon points="72.28 119.57 78.8 119.57 78.8 116.3 69.02 116.3 69.02 119.57 65.76 119.57 65.76 122.83 72.28 122.83 72.28 119.57"/>
    <rect x="78.8" y="109.78" width="3.26" height="6.52"/>
    <rect x="69.02" y="168.48" width="13.04" height="3.26"/>
    <rect x="82.07" y="165.22" width="3.26" height="3.26"/>
    <rect x="62.5" y="165.22" width="6.52" height="3.26"/>
    <rect x="78.8" y="158.7" width="3.26" height="6.52"/>
    <rect x="75.54" y="155.43" width="3.26" height="3.26"/>
    <rect x="104.89" y="152.17" width="16.3" height="3.26"/>
    <polygon points="72.28 152.17 62.5 152.17 62.5 148.91 59.24 148.91 59.24 165.22 62.5 165.22 62.5 155.43 75.54 155.43 75.54 148.91 72.28 148.91 72.28 152.17"/>
    <rect x="95.11" y="148.91" width="9.78" height="3.26"/>
    <rect x="121.2" y="148.91" width="3.26" height="3.26"/>
    <rect x="75.54" y="145.65" width="3.26" height="3.26"/>
    <rect x="78.8" y="139.13" width="3.26" height="6.52"/>
    <rect x="91.85" y="139.13" width="3.26" height="9.78"/>
    <rect x="82.07" y="132.61" width="3.26" height="6.52"/>
    <rect x="95.11" y="106.52" width="3.26" height="6.52"/>
    <polygon points="91.85 113.04 91.85 116.3 88.59 116.3 88.59 119.57 95.11 119.57 95.11 113.04 91.85 113.04"/>
    <rect x="114.67" y="145.65" width="6.52" height="3.26"/>
    <rect x="117.93" y="109.78" width="3.26" height="13.04"/>
    <rect x="114.67" y="122.83" width="3.26" height="6.52"/>
    <rect x="114.67" y="106.52" width="3.26" height="3.26"/>
    <rect x="111.41" y="142.39" width="3.26" height="3.26"/>
    <rect x="111.41" y="129.35" width="3.26" height="6.52"/>
    <rect x="108.15" y="103.26" width="6.52" height="3.26"/>
    <polygon points="108.15 139.13 101.63 139.13 101.63 142.39 111.41 142.39 111.41 135.87 108.15 135.87 108.15 139.13"/>
    <polygon points="101.63 106.52 101.63 103.26 108.15 103.26 108.15 100 98.37 100 98.37 106.52 101.63 106.52"/>
    <polygon points="101.63 122.83 104.89 122.83 104.89 119.57 95.11 119.57 95.11 122.83 98.37 122.83 98.37 135.87 95.11 135.87 95.11 139.13 101.63 139.13 101.63 122.83"/>
    <polygon points="85.33 116.3 82.07 116.3 82.07 122.83 85.33 122.83 85.33 132.61 88.59 132.61 88.59 119.57 85.33 119.57 85.33 116.3"/>
    <rect x="85.33" y="113.04" width="3.26" height="3.26"/>
  </g>
  <g id="grey">
    <polygon class="cls-1" points="78.8 158.7 75.54 158.7 75.54 155.43 62.5 155.43 62.5 165.22 69.02 165.22 69.02 168.48 82.07 168.48 82.07 165.22 78.8 165.22 78.8 158.7"/>
    <polygon class="cls-1" points="114.67 145.65 111.41 145.65 111.41 142.39 101.63 142.39 101.63 139.13 95.11 139.13 95.11 148.91 104.89 148.91 104.89 152.17 121.2 152.17 121.2 148.91 114.67 148.91 114.67 145.65"/>
    <polygon class="cls-1" points="130.98 152.17 130.98 161.96 127.72 161.96 127.72 165.22 121.2 165.22 121.2 168.48 114.67 168.48 114.67 171.74 101.63 171.74 101.63 175 69.02 175 69.02 171.74 59.24 171.74 59.24 168.48 52.72 168.48 52.72 165.22 49.46 165.22 49.46 161.96 42.93 161.96 42.93 152.17 46.2 152.17 46.2 148.91 52.72 148.91 52.72 145.65 62.5 145.65 62.5 148.91 59.24 148.91 59.24 165.22 62.5 165.22 62.5 168.48 72.28 168.48 72.28 171.74 82.07 171.74 82.07 168.48 85.33 168.48 85.33 165.22 82.07 165.22 82.07 158.7 78.8 158.7 78.8 155.43 75.54 155.43 75.54 148.91 78.8 148.91 78.8 145.65 91.85 145.65 91.85 148.91 95.11 148.91 95.11 152.17 104.89 152.17 104.89 155.43 121.2 155.43 121.2 152.17 124.46 152.17 124.46 148.91 127.72 148.91 127.72 152.17 130.98 152.17"/>
    <rect class="cls-1" x="104.89" y="135.87" width="3.26" height="3.26"/>
    <polygon class="cls-1" points="85.33 41.3 108.15 41.3 108.15 38.04 111.41 38.04 111.41 31.52 104.89 31.52 104.89 28.26 85.33 28.26 85.33 31.52 82.07 31.52 82.07 44.57 85.33 44.57 85.33 41.3"/>
    <polygon class="cls-1" points="104.89 70.65 101.63 70.65 101.63 73.91 98.37 73.91 98.37 77.17 104.89 77.17 104.89 73.91 108.15 73.91 108.15 60.87 104.89 60.87 104.89 70.65"/>
    <rect class="cls-1" x="108.15" y="57.61" width="3.26" height="3.26"/>
    <polygon class="cls-1" points="114.67 70.65 114.67 67.39 111.41 67.39 111.41 73.91 124.46 73.91 124.46 70.65 114.67 70.65"/>
    <rect class="cls-1" x="124.46" y="73.91" width="6.52" height="3.26"/>
    <polygon class="cls-1" points="121.2 93.48 114.67 93.48 114.67 90.22 104.89 90.22 104.89 86.96 98.37 86.96 98.37 83.7 88.59 83.7 88.59 80.43 82.07 80.43 82.07 77.17 72.28 77.17 72.28 80.43 78.8 80.43 78.8 83.7 85.33 83.7 85.33 86.96 95.11 86.96 95.11 90.22 101.63 90.22 101.63 93.48 111.41 93.48 111.41 96.74 124.46 96.74 124.46 90.22 121.2 90.22 121.2 93.48"/>
    <polygon class="cls-1" points="82.07 103.26 82.07 106.52 88.59 106.52 88.59 109.78 91.85 109.78 91.85 113.04 95.11 113.04 95.11 106.52 98.37 106.52 98.37 100 88.59 100 88.59 103.26 82.07 103.26"/>
    <polygon class="cls-1" points="82.07 96.74 82.07 100 88.59 100 88.59 96.74 91.85 96.74 91.85 90.22 85.33 90.22 85.33 96.74 82.07 96.74"/>
    <rect class="cls-1" x="140.76" y="80.43" width="13.04" height="3.26"/>
    <rect class="cls-1" x="130.98" y="77.17" width="9.78" height="3.26"/>
    <rect class="cls-1" x="114.67" y="116.3" width="3.26" height="6.52"/>
    <rect class="cls-1" x="111.41" y="122.83" width="3.26" height="6.52"/>
    <rect class="cls-1" x="108.15" y="129.35" width="3.26" height="6.52"/>
    <rect class="cls-1" x="101.63" y="122.83" width="3.26" height="6.52"/>
    <rect class="cls-1" x="82.07" y="86.96" width="3.26" height="3.26"/>
    <polygon class="cls-1" points="55.98 116.3 55.98 113.04 52.72 113.04 52.72 109.78 49.46 109.78 49.46 106.52 46.2 106.52 46.2 113.04 49.46 113.04 49.46 116.3 52.72 116.3 52.72 119.57 59.24 119.57 59.24 116.3 55.98 116.3"/>
    <rect class="cls-1" x="59.24" y="119.57" width="6.52" height="3.26"/>
  </g>
</svg>